<mxfile host="app.diagrams.net" agent="Mozilla/5.0 (Windows NT 10.0; Win64; x64) AppleWebKit/537.36 (KHTML, like Gecko) Chrome/135.0.0.0 Safari/537.36" version="26.2.14" pages="6">
  <diagram name="SendNotification" id="2YBvvXClWsGukQMizWep">
    <mxGraphModel dx="1281" dy="574" grid="1" gridSize="10" guides="1" tooltips="1" connect="1" arrows="1" fold="1" page="1" pageScale="1" pageWidth="850" pageHeight="1100" math="0" shadow="0">
      <root>
        <mxCell id="0" />
        <mxCell id="1" parent="0" />
        <mxCell id="Eyd_4WIQztlVrNAJOPnt-2" value="&lt;b&gt;:System&lt;/b&gt;" style="shape=umlLifeline;perimeter=lifelinePerimeter;whiteSpace=wrap;html=1;container=1;dropTarget=0;collapsible=0;recursiveResize=0;outlineConnect=0;portConstraint=eastwest;newEdgeStyle={&quot;curved&quot;:0,&quot;rounded&quot;:0};" parent="1" vertex="1">
          <mxGeometry x="260" y="290" width="100" height="360" as="geometry" />
        </mxCell>
        <mxCell id="Eyd_4WIQztlVrNAJOPnt-6" value="" style="html=1;points=[[0,0,0,0,5],[0,1,0,0,-5],[1,0,0,0,5],[1,1,0,0,-5]];perimeter=orthogonalPerimeter;outlineConnect=0;targetShapes=umlLifeline;portConstraint=eastwest;newEdgeStyle={&quot;curved&quot;:0,&quot;rounded&quot;:0};" parent="Eyd_4WIQztlVrNAJOPnt-2" vertex="1">
          <mxGeometry x="45" y="70" width="10" height="290" as="geometry" />
        </mxCell>
        <mxCell id="Eyd_4WIQztlVrNAJOPnt-3" value="" style="html=1;verticalAlign=bottom;startArrow=oval;startFill=1;endArrow=block;startSize=8;curved=0;rounded=0;" parent="1" target="Eyd_4WIQztlVrNAJOPnt-6" edge="1">
          <mxGeometry width="60" relative="1" as="geometry">
            <mxPoint x="210" y="370" as="sourcePoint" />
            <mxPoint x="310" y="370" as="targetPoint" />
          </mxGeometry>
        </mxCell>
        <mxCell id="Eyd_4WIQztlVrNAJOPnt-4" value="Message()" style="text;html=1;align=center;verticalAlign=middle;resizable=0;points=[];autosize=1;strokeColor=none;fillColor=none;" parent="1" vertex="1">
          <mxGeometry x="211" y="344" width="80" height="30" as="geometry" />
        </mxCell>
        <mxCell id="Eyd_4WIQztlVrNAJOPnt-7" value="alt" style="shape=umlFrame;whiteSpace=wrap;html=1;pointerEvents=0;" parent="1" vertex="1">
          <mxGeometry x="340" y="374" width="270" height="296" as="geometry" />
        </mxCell>
        <mxCell id="Eyd_4WIQztlVrNAJOPnt-8" value="[User == student]" style="text;html=1;align=center;verticalAlign=middle;resizable=0;points=[];autosize=1;strokeColor=none;fillColor=none;" parent="1" vertex="1">
          <mxGeometry x="390" y="374" width="120" height="30" as="geometry" />
        </mxCell>
        <mxCell id="Eyd_4WIQztlVrNAJOPnt-10" value="" style="endArrow=none;dashed=1;html=1;dashPattern=1 3;strokeWidth=2;rounded=0;exitX=-0.001;exitY=0.629;exitDx=0;exitDy=0;exitPerimeter=0;entryX=0.988;entryY=0.423;entryDx=0;entryDy=0;entryPerimeter=0;" parent="1" target="Eyd_4WIQztlVrNAJOPnt-7" edge="1">
          <mxGeometry width="50" height="50" relative="1" as="geometry">
            <mxPoint x="339.84" y="500.384" as="sourcePoint" />
            <mxPoint x="498.56000000000006" y="499.23199999999997" as="targetPoint" />
          </mxGeometry>
        </mxCell>
        <mxCell id="Eyd_4WIQztlVrNAJOPnt-11" value="" style="html=1;verticalAlign=bottom;endArrow=block;curved=0;rounded=0;entryX=0;entryY=0.077;entryDx=0;entryDy=0;entryPerimeter=0;" parent="1" edge="1">
          <mxGeometry width="80" relative="1" as="geometry">
            <mxPoint x="315" y="430.621" as="sourcePoint" />
            <mxPoint x="410" y="430.621" as="targetPoint" />
          </mxGeometry>
        </mxCell>
        <mxCell id="Eyd_4WIQztlVrNAJOPnt-12" value="&lt;font style=&quot;font-size: 10px;&quot;&gt;new&lt;/font&gt;" style="text;html=1;align=center;verticalAlign=middle;resizable=0;points=[];autosize=1;strokeColor=none;fillColor=none;" parent="1" vertex="1">
          <mxGeometry x="335" y="407" width="40" height="30" as="geometry" />
        </mxCell>
        <mxCell id="Eyd_4WIQztlVrNAJOPnt-14" value=":Student" style="shape=umlLifeline;perimeter=lifelinePerimeter;whiteSpace=wrap;html=1;container=1;dropTarget=0;collapsible=0;recursiveResize=0;outlineConnect=0;portConstraint=eastwest;newEdgeStyle={&quot;curved&quot;:0,&quot;rounded&quot;:0};" parent="1" vertex="1">
          <mxGeometry x="410" y="407" width="70" height="73" as="geometry" />
        </mxCell>
        <mxCell id="Eyd_4WIQztlVrNAJOPnt-18" value="" style="shape=umlDestroy;whiteSpace=wrap;html=1;strokeWidth=3;targetShapes=umlLifeline;" parent="Eyd_4WIQztlVrNAJOPnt-14" vertex="1">
          <mxGeometry x="27.5" y="70" width="15" height="10" as="geometry" />
        </mxCell>
        <mxCell id="Eyd_4WIQztlVrNAJOPnt-16" value="" style="html=1;verticalAlign=bottom;endArrow=block;curved=0;rounded=0;exitX=1.077;exitY=0.644;exitDx=0;exitDy=0;exitPerimeter=0;" parent="1" target="Eyd_4WIQztlVrNAJOPnt-14" edge="1">
          <mxGeometry width="80" relative="1" as="geometry">
            <mxPoint x="315.77" y="460.15999999999997" as="sourcePoint" />
            <mxPoint x="457.9" y="461.7" as="targetPoint" />
          </mxGeometry>
        </mxCell>
        <mxCell id="Eyd_4WIQztlVrNAJOPnt-17" value="&lt;font style=&quot;font-size: 10px;&quot;&gt;SendNotification()&lt;/font&gt;" style="text;html=1;align=center;verticalAlign=middle;resizable=0;points=[];autosize=1;strokeColor=none;fillColor=none;" parent="1" vertex="1">
          <mxGeometry x="330" y="437" width="100" height="30" as="geometry" />
        </mxCell>
        <mxCell id="Eyd_4WIQztlVrNAJOPnt-19" value=":Faculty" style="shape=umlLifeline;perimeter=lifelinePerimeter;whiteSpace=wrap;html=1;container=1;dropTarget=0;collapsible=0;recursiveResize=0;outlineConnect=0;portConstraint=eastwest;newEdgeStyle={&quot;curved&quot;:0,&quot;rounded&quot;:0};" parent="1" vertex="1">
          <mxGeometry x="510" y="539" width="60" height="70" as="geometry" />
        </mxCell>
        <mxCell id="Eyd_4WIQztlVrNAJOPnt-23" value="" style="shape=umlDestroy;whiteSpace=wrap;html=1;strokeWidth=3;targetShapes=umlLifeline;" parent="Eyd_4WIQztlVrNAJOPnt-19" vertex="1">
          <mxGeometry x="23.5" y="60" width="13" height="10" as="geometry" />
        </mxCell>
        <mxCell id="Eyd_4WIQztlVrNAJOPnt-21" value="" style="html=1;verticalAlign=bottom;endArrow=block;curved=0;rounded=0;entryX=0;entryY=0.143;entryDx=0;entryDy=0;entryPerimeter=0;" parent="1" edge="1">
          <mxGeometry width="80" relative="1" as="geometry">
            <mxPoint x="315" y="546.01" as="sourcePoint" />
            <mxPoint x="510" y="546.01" as="targetPoint" />
          </mxGeometry>
        </mxCell>
        <mxCell id="Eyd_4WIQztlVrNAJOPnt-22" value="&lt;font style=&quot;font-size: 10px;&quot;&gt;new&lt;/font&gt;" style="text;html=1;align=center;verticalAlign=middle;resizable=0;points=[];autosize=1;strokeColor=none;fillColor=none;" parent="1" vertex="1">
          <mxGeometry x="390" y="521" width="40" height="30" as="geometry" />
        </mxCell>
        <mxCell id="Eyd_4WIQztlVrNAJOPnt-24" value="" style="html=1;verticalAlign=bottom;endArrow=block;curved=0;rounded=0;" parent="1" edge="1">
          <mxGeometry width="80" relative="1" as="geometry">
            <mxPoint x="315" y="589" as="sourcePoint" />
            <mxPoint x="539.23" y="589" as="targetPoint" />
          </mxGeometry>
        </mxCell>
        <mxCell id="Eyd_4WIQztlVrNAJOPnt-25" value="&lt;font style=&quot;font-size: 10px;&quot;&gt;SendNotification()&lt;/font&gt;" style="text;html=1;align=center;verticalAlign=middle;resizable=0;points=[];autosize=1;strokeColor=none;fillColor=none;" parent="1" vertex="1">
          <mxGeometry x="370" y="561" width="100" height="30" as="geometry" />
        </mxCell>
        <mxCell id="Eyd_4WIQztlVrNAJOPnt-26" value="" style="endArrow=none;dashed=1;html=1;dashPattern=1 3;strokeWidth=2;rounded=0;exitX=-0.001;exitY=0.629;exitDx=0;exitDy=0;exitPerimeter=0;entryX=0.999;entryY=0.458;entryDx=0;entryDy=0;entryPerimeter=0;" parent="1" edge="1">
          <mxGeometry width="50" height="50" relative="1" as="geometry">
            <mxPoint x="340" y="616.384" as="sourcePoint" />
            <mxPoint x="610.16" y="616" as="targetPoint" />
          </mxGeometry>
        </mxCell>
        <mxCell id="Eyd_4WIQztlVrNAJOPnt-31" value="[User == Faculty]" style="text;html=1;align=center;verticalAlign=middle;resizable=0;points=[];autosize=1;strokeColor=none;fillColor=none;" parent="1" vertex="1">
          <mxGeometry x="400" y="498" width="110" height="30" as="geometry" />
        </mxCell>
        <mxCell id="Eyd_4WIQztlVrNAJOPnt-34" value="[Invalid Recipient]" style="text;html=1;align=center;verticalAlign=middle;resizable=0;points=[];autosize=1;strokeColor=none;fillColor=none;" parent="1" vertex="1">
          <mxGeometry x="400" y="618" width="120" height="30" as="geometry" />
        </mxCell>
        <mxCell id="Eyd_4WIQztlVrNAJOPnt-35" value="" style="html=1;points=[[0,0,0,0,5],[0,1,0,0,-5],[1,0,0,0,5],[1,1,0,0,-5]];perimeter=orthogonalPerimeter;outlineConnect=0;targetShapes=umlLifeline;portConstraint=eastwest;newEdgeStyle={&quot;curved&quot;:0,&quot;rounded&quot;:0};" parent="1" vertex="1">
          <mxGeometry x="305" y="650" width="10" height="40" as="geometry" />
        </mxCell>
        <mxCell id="Eyd_4WIQztlVrNAJOPnt-36" value="DisplayError()" style="html=1;align=left;spacingLeft=2;endArrow=block;rounded=0;edgeStyle=orthogonalEdgeStyle;curved=0;rounded=0;" parent="1" target="Eyd_4WIQztlVrNAJOPnt-35" edge="1">
          <mxGeometry relative="1" as="geometry">
            <mxPoint x="315" y="632" as="sourcePoint" />
            <Array as="points">
              <mxPoint x="360" y="632" />
              <mxPoint x="360" y="662" />
            </Array>
            <mxPoint x="300" y="662.006711409396" as="targetPoint" />
          </mxGeometry>
        </mxCell>
        <mxCell id="_He3HU_D5pRLMkw0-iIJ-1" value="&lt;font style=&quot;font-size: 24px;&quot;&gt;&lt;b&gt;&lt;u&gt;Send Notification&lt;/u&gt;&lt;/b&gt;&lt;/font&gt;" style="text;html=1;align=center;verticalAlign=middle;resizable=0;points=[];autosize=1;strokeColor=none;fillColor=none;" vertex="1" parent="1">
          <mxGeometry x="330" y="210" width="220" height="40" as="geometry" />
        </mxCell>
      </root>
    </mxGraphModel>
  </diagram>
  <diagram id="WoQt9iE0IYdqk9PezQMO" name="View schedule course">
    <mxGraphModel dx="1281" dy="574" grid="1" gridSize="10" guides="1" tooltips="1" connect="1" arrows="1" fold="1" page="1" pageScale="1" pageWidth="827" pageHeight="1169" math="0" shadow="0">
      <root>
        <mxCell id="0" />
        <mxCell id="1" parent="0" />
        <mxCell id="F7yjrV-scecUjaE5KFo6-1" value="&lt;b&gt;&lt;font style=&quot;font-size: 12px;&quot;&gt;:System&lt;/font&gt;&lt;/b&gt;" style="shape=umlLifeline;perimeter=lifelinePerimeter;whiteSpace=wrap;html=1;container=1;dropTarget=0;collapsible=0;recursiveResize=0;outlineConnect=0;portConstraint=eastwest;newEdgeStyle={&quot;curved&quot;:0,&quot;rounded&quot;:0};" parent="1" vertex="1">
          <mxGeometry x="354" y="204" width="100" height="486" as="geometry" />
        </mxCell>
        <mxCell id="F7yjrV-scecUjaE5KFo6-8" value="" style="html=1;points=[[0,0,0,0,5],[0,1,0,0,-5],[1,0,0,0,5],[1,1,0,0,-5]];perimeter=orthogonalPerimeter;outlineConnect=0;targetShapes=umlLifeline;portConstraint=eastwest;newEdgeStyle={&quot;curved&quot;:0,&quot;rounded&quot;:0};" parent="F7yjrV-scecUjaE5KFo6-1" vertex="1">
          <mxGeometry x="45" y="50" width="10" height="420" as="geometry" />
        </mxCell>
        <mxCell id="F7yjrV-scecUjaE5KFo6-3" value="" style="shape=umlLifeline;perimeter=lifelinePerimeter;whiteSpace=wrap;html=1;container=1;dropTarget=0;collapsible=0;recursiveResize=0;outlineConnect=0;portConstraint=eastwest;newEdgeStyle={&quot;curved&quot;:0,&quot;rounded&quot;:0};participant=umlActor;" parent="1" vertex="1">
          <mxGeometry x="130" y="224" width="20" height="466" as="geometry" />
        </mxCell>
        <mxCell id="F7yjrV-scecUjaE5KFo6-5" value="" style="html=1;points=[[0,0,0,0,5],[0,1,0,0,-5],[1,0,0,0,5],[1,1,0,0,-5]];perimeter=orthogonalPerimeter;outlineConnect=0;targetShapes=umlLifeline;portConstraint=eastwest;newEdgeStyle={&quot;curved&quot;:0,&quot;rounded&quot;:0};" parent="F7yjrV-scecUjaE5KFo6-3" vertex="1">
          <mxGeometry x="5" y="40" width="10" height="400" as="geometry" />
        </mxCell>
        <mxCell id="F7yjrV-scecUjaE5KFo6-4" value="&lt;font style=&quot;font-size: 12px;&quot;&gt;&lt;b style=&quot;&quot;&gt;Student&lt;/b&gt;&lt;/font&gt;" style="text;html=1;align=center;verticalAlign=middle;resizable=0;points=[];autosize=1;strokeColor=none;fillColor=none;" parent="1" vertex="1">
          <mxGeometry x="109" y="190" width="70" height="30" as="geometry" />
        </mxCell>
        <mxCell id="F7yjrV-scecUjaE5KFo6-6" value="alt" style="shape=umlFrame;whiteSpace=wrap;html=1;pointerEvents=0;" parent="1" vertex="1">
          <mxGeometry x="354" y="310" width="355" height="164" as="geometry" />
        </mxCell>
        <mxCell id="F7yjrV-scecUjaE5KFo6-7" value="&lt;b&gt;logIn()&lt;/b&gt;" style="html=1;verticalAlign=bottom;endArrow=block;curved=0;rounded=0;" parent="1" edge="1">
          <mxGeometry width="80" relative="1" as="geometry">
            <mxPoint x="144.9999999999999" y="270" as="sourcePoint" />
            <mxPoint x="399" y="270" as="targetPoint" />
          </mxGeometry>
        </mxCell>
        <mxCell id="F7yjrV-scecUjaE5KFo6-9" value="&lt;font style=&quot;font-size: 10px;&quot;&gt;&lt;b style=&quot;&quot;&gt;[IsAuthanticated == true]&lt;/b&gt;&lt;/font&gt;" style="text;html=1;align=center;verticalAlign=middle;resizable=0;points=[];autosize=1;strokeColor=none;fillColor=none;" parent="1" vertex="1">
          <mxGeometry x="406" y="310" width="140" height="30" as="geometry" />
        </mxCell>
        <mxCell id="F7yjrV-scecUjaE5KFo6-10" value="" style="endArrow=none;dashed=1;html=1;dashPattern=1 3;strokeWidth=2;rounded=0;exitX=0.002;exitY=0.397;exitDx=0;exitDy=0;exitPerimeter=0;entryX=0.996;entryY=0.399;entryDx=0;entryDy=0;entryPerimeter=0;" parent="1" source="F7yjrV-scecUjaE5KFo6-6" target="F7yjrV-scecUjaE5KFo6-6" edge="1">
          <mxGeometry width="50" height="50" relative="1" as="geometry">
            <mxPoint x="340.31999999999994" y="378.45000000000005" as="sourcePoint" />
            <mxPoint x="549" y="375" as="targetPoint" />
          </mxGeometry>
        </mxCell>
        <mxCell id="F7yjrV-scecUjaE5KFo6-11" value="&lt;b&gt;LogIn Success&lt;/b&gt;" style="html=1;verticalAlign=bottom;endArrow=open;dashed=1;endSize=8;curved=0;rounded=0;" parent="1" edge="1">
          <mxGeometry relative="1" as="geometry">
            <mxPoint x="399" y="355" as="sourcePoint" />
            <mxPoint x="145" y="355" as="targetPoint" />
          </mxGeometry>
        </mxCell>
        <mxCell id="F7yjrV-scecUjaE5KFo6-12" value="&lt;b&gt;:&lt;/b&gt;&lt;b&gt;DbController&lt;/b&gt;" style="shape=umlLifeline;perimeter=lifelinePerimeter;whiteSpace=wrap;html=1;container=1;dropTarget=0;collapsible=0;recursiveResize=0;outlineConnect=0;portConstraint=eastwest;newEdgeStyle={&quot;curved&quot;:0,&quot;rounded&quot;:0};" parent="1" vertex="1">
          <mxGeometry x="619" y="204" width="100" height="446" as="geometry" />
        </mxCell>
        <mxCell id="F7yjrV-scecUjaE5KFo6-15" value="" style="html=1;points=[[0,0,0,0,5],[0,1,0,0,-5],[1,0,0,0,5],[1,1,0,0,-5]];perimeter=orthogonalPerimeter;outlineConnect=0;targetShapes=umlLifeline;portConstraint=eastwest;newEdgeStyle={&quot;curved&quot;:0,&quot;rounded&quot;:0};" parent="F7yjrV-scecUjaE5KFo6-12" vertex="1">
          <mxGeometry x="45" y="70" width="10" height="20" as="geometry" />
        </mxCell>
        <mxCell id="F7yjrV-scecUjaE5KFo6-14" value="&lt;b&gt;Check()&lt;/b&gt;" style="html=1;verticalAlign=bottom;endArrow=block;curved=0;rounded=0;" parent="1" edge="1">
          <mxGeometry width="80" relative="1" as="geometry">
            <mxPoint x="409" y="280" as="sourcePoint" />
            <mxPoint x="664" y="280" as="targetPoint" />
          </mxGeometry>
        </mxCell>
        <mxCell id="F7yjrV-scecUjaE5KFo6-16" value="break" style="shape=umlFrame;whiteSpace=wrap;html=1;pointerEvents=0;" parent="1" vertex="1">
          <mxGeometry x="367" y="390" width="332" height="71" as="geometry" />
        </mxCell>
        <mxCell id="F7yjrV-scecUjaE5KFo6-17" value="&lt;b style=&quot;font-size: 10px;&quot;&gt;[IsAuthanticated == false]&lt;/b&gt;" style="text;html=1;align=center;verticalAlign=middle;resizable=0;points=[];autosize=1;strokeColor=none;fillColor=none;" parent="1" vertex="1">
          <mxGeometry x="417" y="387" width="150" height="30" as="geometry" />
        </mxCell>
        <mxCell id="F7yjrV-scecUjaE5KFo6-19" value="&lt;b&gt;LogIn Failed&lt;/b&gt;" style="html=1;verticalAlign=bottom;endArrow=open;dashed=1;endSize=8;curved=0;rounded=0;exitX=-0.178;exitY=0.773;exitDx=0;exitDy=0;exitPerimeter=0;" parent="1" edge="1">
          <mxGeometry relative="1" as="geometry">
            <mxPoint x="397.22" y="438.3299999999999" as="sourcePoint" />
            <mxPoint x="145" y="438.3299999999999" as="targetPoint" />
          </mxGeometry>
        </mxCell>
        <mxCell id="F7yjrV-scecUjaE5KFo6-20" value="NavigateSchedule()" style="html=1;verticalAlign=bottom;endArrow=block;curved=0;rounded=0;entryX=0;entryY=1;entryDx=0;entryDy=-5;entryPerimeter=0;" parent="1" edge="1">
          <mxGeometry width="80" relative="1" as="geometry">
            <mxPoint x="145" y="494" as="sourcePoint" />
            <mxPoint x="399" y="494" as="targetPoint" />
          </mxGeometry>
        </mxCell>
        <mxCell id="F7yjrV-scecUjaE5KFo6-21" value="CheckNumberOfCourses()" style="html=1;verticalAlign=bottom;endArrow=block;curved=0;rounded=0;" parent="1" edge="1">
          <mxGeometry x="-0.0588" y="3" width="80" relative="1" as="geometry">
            <mxPoint x="409" y="525" as="sourcePoint" />
            <mxPoint x="664" y="525" as="targetPoint" />
            <mxPoint as="offset" />
          </mxGeometry>
        </mxCell>
        <mxCell id="F7yjrV-scecUjaE5KFo6-22" value="alt" style="shape=umlFrame;whiteSpace=wrap;html=1;pointerEvents=0;" parent="1" vertex="1">
          <mxGeometry x="339" y="543" width="360" height="117" as="geometry" />
        </mxCell>
        <mxCell id="F7yjrV-scecUjaE5KFo6-23" value="" style="html=1;points=[[0,0,0,0,5],[0,1,0,0,-5],[1,0,0,0,5],[1,1,0,0,-5]];perimeter=orthogonalPerimeter;outlineConnect=0;targetShapes=umlLifeline;portConstraint=eastwest;newEdgeStyle={&quot;curved&quot;:0,&quot;rounded&quot;:0};" parent="1" vertex="1">
          <mxGeometry x="664" y="480" width="10" height="120" as="geometry" />
        </mxCell>
        <mxCell id="F7yjrV-scecUjaE5KFo6-24" value="[ NumberOfCourses != 0 ]" style="text;html=1;align=center;verticalAlign=middle;resizable=0;points=[];autosize=1;strokeColor=none;fillColor=none;" parent="1" vertex="1">
          <mxGeometry x="406" y="540" width="160" height="30" as="geometry" />
        </mxCell>
        <mxCell id="F7yjrV-scecUjaE5KFo6-26" value="GetSchedules()" style="html=1;verticalAlign=bottom;endArrow=block;curved=0;rounded=0;" parent="1" source="F7yjrV-scecUjaE5KFo6-8" edge="1">
          <mxGeometry width="80" relative="1" as="geometry">
            <mxPoint x="403.92857142857133" y="589" as="sourcePoint" />
            <mxPoint x="664" y="589" as="targetPoint" />
          </mxGeometry>
        </mxCell>
        <mxCell id="F7yjrV-scecUjaE5KFo6-29" value="" style="endArrow=none;dashed=1;html=1;dashPattern=1 3;strokeWidth=2;rounded=0;exitX=0;exitY=0.745;exitDx=0;exitDy=0;exitPerimeter=0;entryX=0.99;entryY=0.726;entryDx=0;entryDy=0;entryPerimeter=0;" parent="1" source="F7yjrV-scecUjaE5KFo6-22" target="F7yjrV-scecUjaE5KFo6-22" edge="1">
          <mxGeometry width="50" height="50" relative="1" as="geometry">
            <mxPoint x="439" y="730" as="sourcePoint" />
            <mxPoint x="489" y="680" as="targetPoint" />
          </mxGeometry>
        </mxCell>
        <mxCell id="F7yjrV-scecUjaE5KFo6-30" value="DisplaySchedule()" style="html=1;verticalAlign=bottom;endArrow=open;dashed=1;endSize=8;curved=0;rounded=0;exitX=0;exitY=0.848;exitDx=0;exitDy=0;exitPerimeter=0;" parent="1" source="F7yjrV-scecUjaE5KFo6-8" target="F7yjrV-scecUjaE5KFo6-5" edge="1">
          <mxGeometry relative="1" as="geometry">
            <mxPoint x="359" y="610" as="sourcePoint" />
            <mxPoint x="279" y="610" as="targetPoint" />
          </mxGeometry>
        </mxCell>
        <mxCell id="F7yjrV-scecUjaE5KFo6-31" value="&lt;font style=&quot;font-size: 8px;&quot;&gt;NavigateSchedule : &quot;NoCoursesRegistered&quot;&lt;/font&gt;" style="html=1;verticalAlign=bottom;endArrow=open;dashed=1;endSize=8;curved=0;rounded=0;exitX=0;exitY=0.848;exitDx=0;exitDy=0;exitPerimeter=0;" parent="1" edge="1">
          <mxGeometry x="0.1732" y="-4" relative="1" as="geometry">
            <mxPoint x="398" y="654" as="sourcePoint" />
            <mxPoint x="144" y="654" as="targetPoint" />
            <mxPoint as="offset" />
          </mxGeometry>
        </mxCell>
        <mxCell id="sTGW1pLuLjJ2m_X4JAva-1" value="&lt;b style=&quot;forced-color-adjust: none; color: rgb(0, 0, 0); font-family: Helvetica; font-size: 24px; font-style: normal; font-variant-ligatures: normal; font-variant-caps: normal; letter-spacing: normal; orphans: 2; text-align: center; text-indent: 0px; text-transform: none; widows: 2; word-spacing: 0px; -webkit-text-stroke-width: 0px; white-space: nowrap; background-color: rgb(236, 236, 236); text-decoration-thickness: initial; text-decoration-style: initial; text-decoration-color: initial;&quot;&gt;&lt;u style=&quot;forced-color-adjust: none;&quot;&gt;View Schedule Course&lt;/u&gt;&lt;/b&gt;" style="text;whiteSpace=wrap;html=1;" vertex="1" parent="1">
          <mxGeometry x="260" y="90" width="230" height="50" as="geometry" />
        </mxCell>
      </root>
    </mxGraphModel>
  </diagram>
  <diagram id="VS7lrqG9MP3MTqj8k1XM" name="print certificate ">
    <mxGraphModel dx="1281" dy="574" grid="1" gridSize="10" guides="1" tooltips="1" connect="1" arrows="1" fold="1" page="1" pageScale="1" pageWidth="827" pageHeight="1169" math="0" shadow="0">
      <root>
        <mxCell id="0" />
        <mxCell id="1" parent="0" />
        <mxCell id="2z_lj3GCPgTAGxex2fQo-1" value="&lt;b&gt;&lt;font style=&quot;font-size: 12px;&quot;&gt;:System&lt;/font&gt;&lt;/b&gt;" style="shape=umlLifeline;perimeter=lifelinePerimeter;whiteSpace=wrap;html=1;container=1;dropTarget=0;collapsible=0;recursiveResize=0;outlineConnect=0;portConstraint=eastwest;newEdgeStyle={&quot;curved&quot;:0,&quot;rounded&quot;:0};" parent="1" vertex="1">
          <mxGeometry x="375" y="94" width="100" height="896" as="geometry" />
        </mxCell>
        <mxCell id="2z_lj3GCPgTAGxex2fQo-2" value="" style="html=1;points=[[0,0,0,0,5],[0,1,0,0,-5],[1,0,0,0,5],[1,1,0,0,-5]];perimeter=orthogonalPerimeter;outlineConnect=0;targetShapes=umlLifeline;portConstraint=eastwest;newEdgeStyle={&quot;curved&quot;:0,&quot;rounded&quot;:0};" parent="2z_lj3GCPgTAGxex2fQo-1" vertex="1">
          <mxGeometry x="45" y="44" width="10" height="826" as="geometry" />
        </mxCell>
        <mxCell id="2z_lj3GCPgTAGxex2fQo-3" value="" style="shape=umlLifeline;perimeter=lifelinePerimeter;whiteSpace=wrap;html=1;container=1;dropTarget=0;collapsible=0;recursiveResize=0;outlineConnect=0;portConstraint=eastwest;newEdgeStyle={&quot;curved&quot;:0,&quot;rounded&quot;:0};participant=umlActor;" parent="1" vertex="1">
          <mxGeometry x="151" y="114" width="20" height="876" as="geometry" />
        </mxCell>
        <mxCell id="2z_lj3GCPgTAGxex2fQo-4" value="" style="html=1;points=[[0,0,0,0,5],[0,1,0,0,-5],[1,0,0,0,5],[1,1,0,0,-5]];perimeter=orthogonalPerimeter;outlineConnect=0;targetShapes=umlLifeline;portConstraint=eastwest;newEdgeStyle={&quot;curved&quot;:0,&quot;rounded&quot;:0};" parent="2z_lj3GCPgTAGxex2fQo-3" vertex="1">
          <mxGeometry x="5" y="40" width="10" height="820" as="geometry" />
        </mxCell>
        <mxCell id="2z_lj3GCPgTAGxex2fQo-5" value="&lt;font style=&quot;font-size: 12px;&quot;&gt;&lt;b style=&quot;&quot;&gt;Student&lt;/b&gt;&lt;/font&gt;" style="text;html=1;align=center;verticalAlign=middle;resizable=0;points=[];autosize=1;strokeColor=none;fillColor=none;" parent="1" vertex="1">
          <mxGeometry x="130" y="80" width="70" height="30" as="geometry" />
        </mxCell>
        <mxCell id="2z_lj3GCPgTAGxex2fQo-6" value="alt" style="shape=umlFrame;whiteSpace=wrap;html=1;pointerEvents=0;" parent="1" vertex="1">
          <mxGeometry x="375" y="200" width="355" height="164" as="geometry" />
        </mxCell>
        <mxCell id="2z_lj3GCPgTAGxex2fQo-7" value="&lt;b&gt;logIn()&lt;/b&gt;" style="html=1;verticalAlign=bottom;endArrow=block;curved=0;rounded=0;" parent="1" edge="1">
          <mxGeometry width="80" relative="1" as="geometry">
            <mxPoint x="165.9999999999999" y="160" as="sourcePoint" />
            <mxPoint x="420" y="160" as="targetPoint" />
          </mxGeometry>
        </mxCell>
        <mxCell id="2z_lj3GCPgTAGxex2fQo-8" value="&lt;font style=&quot;font-size: 10px;&quot;&gt;&lt;b style=&quot;&quot;&gt;[IsAuthanticated == true]&lt;/b&gt;&lt;/font&gt;" style="text;html=1;align=center;verticalAlign=middle;resizable=0;points=[];autosize=1;strokeColor=none;fillColor=none;" parent="1" vertex="1">
          <mxGeometry x="427" y="200" width="140" height="30" as="geometry" />
        </mxCell>
        <mxCell id="2z_lj3GCPgTAGxex2fQo-9" value="" style="endArrow=none;dashed=1;html=1;dashPattern=1 3;strokeWidth=2;rounded=0;exitX=0.002;exitY=0.397;exitDx=0;exitDy=0;exitPerimeter=0;entryX=0.996;entryY=0.399;entryDx=0;entryDy=0;entryPerimeter=0;" parent="1" source="2z_lj3GCPgTAGxex2fQo-6" target="2z_lj3GCPgTAGxex2fQo-6" edge="1">
          <mxGeometry width="50" height="50" relative="1" as="geometry">
            <mxPoint x="361.31999999999994" y="268.45000000000005" as="sourcePoint" />
            <mxPoint x="570" y="265" as="targetPoint" />
          </mxGeometry>
        </mxCell>
        <mxCell id="2z_lj3GCPgTAGxex2fQo-10" value="&lt;b&gt;LogIn Success&lt;/b&gt;" style="html=1;verticalAlign=bottom;endArrow=open;dashed=1;endSize=8;curved=0;rounded=0;" parent="1" edge="1">
          <mxGeometry relative="1" as="geometry">
            <mxPoint x="420" y="245" as="sourcePoint" />
            <mxPoint x="166" y="245" as="targetPoint" />
          </mxGeometry>
        </mxCell>
        <mxCell id="2z_lj3GCPgTAGxex2fQo-11" value="&lt;b&gt;:&lt;/b&gt;&lt;b&gt;DbController&lt;/b&gt;" style="shape=umlLifeline;perimeter=lifelinePerimeter;whiteSpace=wrap;html=1;container=1;dropTarget=0;collapsible=0;recursiveResize=0;outlineConnect=0;portConstraint=eastwest;newEdgeStyle={&quot;curved&quot;:0,&quot;rounded&quot;:0};" parent="1" vertex="1">
          <mxGeometry x="640" y="94" width="100" height="886" as="geometry" />
        </mxCell>
        <mxCell id="2z_lj3GCPgTAGxex2fQo-12" value="" style="html=1;points=[[0,0,0,0,5],[0,1,0,0,-5],[1,0,0,0,5],[1,1,0,0,-5]];perimeter=orthogonalPerimeter;outlineConnect=0;targetShapes=umlLifeline;portConstraint=eastwest;newEdgeStyle={&quot;curved&quot;:0,&quot;rounded&quot;:0};" parent="2z_lj3GCPgTAGxex2fQo-11" vertex="1">
          <mxGeometry x="45" y="70" width="10" height="20" as="geometry" />
        </mxCell>
        <mxCell id="2z_lj3GCPgTAGxex2fQo-33" value="" style="html=1;points=[[0,0,0,0,5],[0,1,0,0,-5],[1,0,0,0,5],[1,1,0,0,-5]];perimeter=orthogonalPerimeter;outlineConnect=0;targetShapes=umlLifeline;portConstraint=eastwest;newEdgeStyle={&quot;curved&quot;:0,&quot;rounded&quot;:0};" parent="2z_lj3GCPgTAGxex2fQo-11" vertex="1">
          <mxGeometry x="45" y="537" width="10" height="23" as="geometry" />
        </mxCell>
        <mxCell id="2z_lj3GCPgTAGxex2fQo-13" value="&lt;b&gt;Check()&lt;/b&gt;" style="html=1;verticalAlign=bottom;endArrow=block;curved=0;rounded=0;" parent="1" edge="1">
          <mxGeometry width="80" relative="1" as="geometry">
            <mxPoint x="430" y="170" as="sourcePoint" />
            <mxPoint x="685" y="170" as="targetPoint" />
          </mxGeometry>
        </mxCell>
        <mxCell id="2z_lj3GCPgTAGxex2fQo-14" value="break" style="shape=umlFrame;whiteSpace=wrap;html=1;pointerEvents=0;" parent="1" vertex="1">
          <mxGeometry x="388" y="280" width="332" height="71" as="geometry" />
        </mxCell>
        <mxCell id="2z_lj3GCPgTAGxex2fQo-15" value="&lt;b style=&quot;font-size: 10px;&quot;&gt;[IsAuthanticated == false]&lt;/b&gt;" style="text;html=1;align=center;verticalAlign=middle;resizable=0;points=[];autosize=1;strokeColor=none;fillColor=none;" parent="1" vertex="1">
          <mxGeometry x="438" y="277" width="150" height="30" as="geometry" />
        </mxCell>
        <mxCell id="2z_lj3GCPgTAGxex2fQo-16" value="&lt;b&gt;error message&lt;/b&gt;" style="html=1;verticalAlign=bottom;endArrow=open;dashed=1;endSize=8;curved=0;rounded=0;exitX=-0.178;exitY=0.773;exitDx=0;exitDy=0;exitPerimeter=0;" parent="1" edge="1">
          <mxGeometry relative="1" as="geometry">
            <mxPoint x="418.22" y="328.3299999999999" as="sourcePoint" />
            <mxPoint x="166" y="328.3299999999999" as="targetPoint" />
          </mxGeometry>
        </mxCell>
        <mxCell id="2z_lj3GCPgTAGxex2fQo-17" value="NavigateCertificate()" style="html=1;verticalAlign=bottom;endArrow=block;curved=0;rounded=0;entryX=0;entryY=1;entryDx=0;entryDy=-5;entryPerimeter=0;" parent="1" edge="1">
          <mxGeometry width="80" relative="1" as="geometry">
            <mxPoint x="166" y="384" as="sourcePoint" />
            <mxPoint x="420" y="384" as="targetPoint" />
          </mxGeometry>
        </mxCell>
        <mxCell id="2z_lj3GCPgTAGxex2fQo-18" value="IsCompleteRequiredCourse()" style="html=1;verticalAlign=bottom;endArrow=block;curved=0;rounded=0;" parent="1" edge="1">
          <mxGeometry x="-0.0588" y="3" width="80" relative="1" as="geometry">
            <mxPoint x="430" y="415" as="sourcePoint" />
            <mxPoint x="685" y="415" as="targetPoint" />
            <mxPoint as="offset" />
          </mxGeometry>
        </mxCell>
        <mxCell id="2z_lj3GCPgTAGxex2fQo-19" value="alt" style="shape=umlFrame;whiteSpace=wrap;html=1;pointerEvents=0;" parent="1" vertex="1">
          <mxGeometry x="360" y="433" width="360" height="147" as="geometry" />
        </mxCell>
        <mxCell id="2z_lj3GCPgTAGxex2fQo-20" value="" style="html=1;points=[[0,0,0,0,5],[0,1,0,0,-5],[1,0,0,0,5],[1,1,0,0,-5]];perimeter=orthogonalPerimeter;outlineConnect=0;targetShapes=umlLifeline;portConstraint=eastwest;newEdgeStyle={&quot;curved&quot;:0,&quot;rounded&quot;:0};" parent="1" vertex="1">
          <mxGeometry x="685" y="390" width="10" height="40" as="geometry" />
        </mxCell>
        <mxCell id="2z_lj3GCPgTAGxex2fQo-21" value="&lt;b&gt;[IsCompleted == true]&lt;/b&gt;" style="text;html=1;align=center;verticalAlign=middle;resizable=0;points=[];autosize=1;strokeColor=none;fillColor=none;" parent="1" vertex="1">
          <mxGeometry x="432" y="430" width="150" height="30" as="geometry" />
        </mxCell>
        <mxCell id="2z_lj3GCPgTAGxex2fQo-22" value="&lt;span style=&quot;font-size: 12px; background-color: rgb(236, 236, 236);&quot;&gt;IsCertificateEnabled&lt;/span&gt;&lt;span style=&quot;font-size: 12px; background-color: rgb(236, 236, 236);&quot;&gt;()&lt;/span&gt;" style="html=1;verticalAlign=bottom;endArrow=block;curved=0;rounded=0;" parent="1" edge="1">
          <mxGeometry width="80" relative="1" as="geometry">
            <mxPoint x="430" y="640" as="sourcePoint" />
            <mxPoint x="685" y="640" as="targetPoint" />
          </mxGeometry>
        </mxCell>
        <mxCell id="2z_lj3GCPgTAGxex2fQo-23" value="" style="endArrow=none;dashed=1;html=1;dashPattern=1 3;strokeWidth=2;rounded=0;exitX=0;exitY=0.745;exitDx=0;exitDy=0;exitPerimeter=0;entryX=0.99;entryY=0.726;entryDx=0;entryDy=0;entryPerimeter=0;" parent="1" edge="1">
          <mxGeometry width="50" height="50" relative="1" as="geometry">
            <mxPoint x="360" y="490.5150000000001" as="sourcePoint" />
            <mxPoint x="716.4000000000001" y="487.722" as="targetPoint" />
          </mxGeometry>
        </mxCell>
        <mxCell id="2z_lj3GCPgTAGxex2fQo-26" value="alt" style="shape=umlFrame;whiteSpace=wrap;html=1;pointerEvents=0;" parent="1" vertex="1">
          <mxGeometry x="361" y="668" width="360" height="162" as="geometry" />
        </mxCell>
        <mxCell id="2z_lj3GCPgTAGxex2fQo-27" value="&lt;b&gt;[IsCertificateEnabled == true]&lt;/b&gt;" style="text;html=1;align=center;verticalAlign=middle;resizable=0;points=[];autosize=1;strokeColor=none;fillColor=none;" parent="1" vertex="1">
          <mxGeometry x="453" y="662" width="190" height="30" as="geometry" />
        </mxCell>
        <mxCell id="2z_lj3GCPgTAGxex2fQo-28" value="&quot;Complete Course Success&quot;" style="html=1;verticalAlign=bottom;endArrow=open;dashed=1;endSize=8;curved=0;rounded=0;" parent="1" target="2z_lj3GCPgTAGxex2fQo-4" edge="1">
          <mxGeometry x="0.2355" relative="1" as="geometry">
            <mxPoint x="420" y="479.78600000000006" as="sourcePoint" />
            <mxPoint x="162.62" y="479.78600000000006" as="targetPoint" />
            <mxPoint as="offset" />
          </mxGeometry>
        </mxCell>
        <mxCell id="2z_lj3GCPgTAGxex2fQo-30" value="break" style="shape=umlFrame;whiteSpace=wrap;html=1;pointerEvents=0;" parent="1" vertex="1">
          <mxGeometry x="385" y="500" width="326" height="60" as="geometry" />
        </mxCell>
        <mxCell id="2z_lj3GCPgTAGxex2fQo-31" value="&lt;b&gt;[IsCompleted == false]&lt;/b&gt;" style="text;html=1;align=center;verticalAlign=middle;resizable=0;points=[];autosize=1;strokeColor=none;fillColor=none;" parent="1" vertex="1">
          <mxGeometry x="436" y="498" width="150" height="30" as="geometry" />
        </mxCell>
        <mxCell id="2z_lj3GCPgTAGxex2fQo-32" value="&lt;b&gt;error message&lt;/b&gt;" style="html=1;verticalAlign=bottom;endArrow=open;dashed=1;endSize=8;curved=0;rounded=0;" parent="1" edge="1">
          <mxGeometry x="0.2355" relative="1" as="geometry">
            <mxPoint x="420" y="544.7860000000001" as="sourcePoint" />
            <mxPoint x="166" y="545" as="targetPoint" />
            <mxPoint as="offset" />
          </mxGeometry>
        </mxCell>
        <mxCell id="2z_lj3GCPgTAGxex2fQo-34" value="GenerateCertificate()" style="html=1;verticalAlign=bottom;endArrow=block;curved=0;rounded=0;" parent="1" edge="1">
          <mxGeometry width="80" relative="1" as="geometry">
            <mxPoint x="166" y="599" as="sourcePoint" />
            <mxPoint x="421" y="599" as="targetPoint" />
          </mxGeometry>
        </mxCell>
        <mxCell id="2z_lj3GCPgTAGxex2fQo-35" value="" style="endArrow=none;dashed=1;html=1;dashPattern=1 3;strokeWidth=2;rounded=0;exitX=0;exitY=0.745;exitDx=0;exitDy=0;exitPerimeter=0;entryX=0.99;entryY=0.726;entryDx=0;entryDy=0;entryPerimeter=0;" parent="1" edge="1">
          <mxGeometry width="50" height="50" relative="1" as="geometry">
            <mxPoint x="362" y="751.5150000000001" as="sourcePoint" />
            <mxPoint x="718.4000000000001" y="748.722" as="targetPoint" />
          </mxGeometry>
        </mxCell>
        <mxCell id="2z_lj3GCPgTAGxex2fQo-36" value="" style="html=1;points=[[0,0,0,0,5],[0,1,0,0,-5],[1,0,0,0,5],[1,1,0,0,-5]];perimeter=orthogonalPerimeter;outlineConnect=0;targetShapes=umlLifeline;portConstraint=eastwest;newEdgeStyle={&quot;curved&quot;:0,&quot;rounded&quot;:0};" parent="1" vertex="1">
          <mxGeometry x="685" y="692" width="10" height="23" as="geometry" />
        </mxCell>
        <mxCell id="2z_lj3GCPgTAGxex2fQo-37" value="GenerateCertificate()" style="html=1;verticalAlign=bottom;endArrow=block;curved=0;rounded=0;" parent="1" edge="1">
          <mxGeometry width="80" relative="1" as="geometry">
            <mxPoint x="430" y="705" as="sourcePoint" />
            <mxPoint x="685" y="705" as="targetPoint" />
          </mxGeometry>
        </mxCell>
        <mxCell id="2z_lj3GCPgTAGxex2fQo-38" value="DisplayCetificate()" style="html=1;verticalAlign=bottom;endArrow=open;dashed=1;endSize=8;curved=0;rounded=0;exitX=0.1;exitY=0.862;exitDx=0;exitDy=0;exitPerimeter=0;" parent="1" edge="1">
          <mxGeometry relative="1" as="geometry">
            <mxPoint x="421" y="729.5" as="sourcePoint" />
            <mxPoint x="166" y="729.5" as="targetPoint" />
          </mxGeometry>
        </mxCell>
        <mxCell id="2z_lj3GCPgTAGxex2fQo-39" value="break" style="shape=umlFrame;whiteSpace=wrap;html=1;pointerEvents=0;" parent="1" vertex="1">
          <mxGeometry x="369" y="759" width="326" height="60" as="geometry" />
        </mxCell>
        <mxCell id="2z_lj3GCPgTAGxex2fQo-40" value="&lt;b style=&quot;forced-color-adjust: none; color: rgb(0, 0, 0); font-family: Helvetica; font-size: 12px; font-style: normal; font-variant-ligatures: normal; font-variant-caps: normal; letter-spacing: normal; orphans: 2; text-align: center; text-indent: 0px; text-transform: none; widows: 2; word-spacing: 0px; -webkit-text-stroke-width: 0px; white-space: nowrap; background-color: rgb(236, 236, 236); text-decoration-thickness: initial; text-decoration-style: initial; text-decoration-color: initial;&quot;&gt;[IsCertificateEnabled == false]&lt;/b&gt;" style="text;whiteSpace=wrap;html=1;" parent="1" vertex="1">
          <mxGeometry x="434.5" y="759" width="200" height="40" as="geometry" />
        </mxCell>
        <mxCell id="2z_lj3GCPgTAGxex2fQo-41" value="&lt;b&gt;error message&lt;/b&gt;" style="html=1;verticalAlign=bottom;endArrow=open;dashed=1;endSize=8;curved=0;rounded=0;exitX=0.1;exitY=0.862;exitDx=0;exitDy=0;exitPerimeter=0;" parent="1" edge="1">
          <mxGeometry relative="1" as="geometry">
            <mxPoint x="420" y="804.5" as="sourcePoint" />
            <mxPoint x="165" y="804.5" as="targetPoint" />
          </mxGeometry>
        </mxCell>
        <mxCell id="2z_lj3GCPgTAGxex2fQo-42" value="alt" style="shape=umlFrame;whiteSpace=wrap;html=1;pointerEvents=0;" parent="1" vertex="1">
          <mxGeometry x="114" y="840" width="346" height="110" as="geometry" />
        </mxCell>
        <mxCell id="2z_lj3GCPgTAGxex2fQo-43" value="[ DownloadSelected == true ]" style="text;html=1;align=center;verticalAlign=middle;resizable=0;points=[];autosize=1;strokeColor=none;fillColor=none;" parent="1" vertex="1">
          <mxGeometry x="171" y="840" width="180" height="30" as="geometry" />
        </mxCell>
        <mxCell id="2z_lj3GCPgTAGxex2fQo-44" value="Download()" style="html=1;verticalAlign=bottom;endArrow=block;curved=0;rounded=0;" parent="1" edge="1">
          <mxGeometry width="80" relative="1" as="geometry">
            <mxPoint x="165.99999999999977" y="880" as="sourcePoint" />
            <mxPoint x="420" y="880" as="targetPoint" />
          </mxGeometry>
        </mxCell>
        <mxCell id="2z_lj3GCPgTAGxex2fQo-45" value="" style="endArrow=none;dashed=1;html=1;dashPattern=1 3;strokeWidth=2;rounded=0;exitX=0.003;exitY=0.588;exitDx=0;exitDy=0;exitPerimeter=0;" parent="1" source="2z_lj3GCPgTAGxex2fQo-42" edge="1">
          <mxGeometry width="50" height="50" relative="1" as="geometry">
            <mxPoint x="110" y="904" as="sourcePoint" />
            <mxPoint x="460" y="904" as="targetPoint" />
          </mxGeometry>
        </mxCell>
        <mxCell id="2z_lj3GCPgTAGxex2fQo-46" value="Print()" style="html=1;verticalAlign=bottom;endArrow=block;curved=0;rounded=0;" parent="1" edge="1">
          <mxGeometry width="80" relative="1" as="geometry">
            <mxPoint x="165.99999999999977" y="931" as="sourcePoint" />
            <mxPoint x="420" y="931" as="targetPoint" />
          </mxGeometry>
        </mxCell>
        <mxCell id="ZBfQKC-P9D8_rYhmpopy-1" value="&lt;b style=&quot;forced-color-adjust: none; color: rgb(0, 0, 0); font-family: Helvetica; font-size: 24px; font-style: normal; font-variant-ligatures: normal; font-variant-caps: normal; letter-spacing: normal; orphans: 2; text-align: center; text-indent: 0px; text-transform: none; widows: 2; word-spacing: 0px; -webkit-text-stroke-width: 0px; white-space: nowrap; background-color: rgb(236, 236, 236); text-decoration-thickness: initial; text-decoration-style: initial; text-decoration-color: initial;&quot;&gt;&lt;u style=&quot;forced-color-adjust: none;&quot;&gt;Print Certificate&lt;/u&gt;&lt;/b&gt;" style="text;whiteSpace=wrap;html=1;" vertex="1" parent="1">
          <mxGeometry x="310" y="10" width="230" height="50" as="geometry" />
        </mxCell>
      </root>
    </mxGraphModel>
  </diagram>
  <diagram id="mLpnLwZ9AM20MImD5oOe" name="search for course">
    <mxGraphModel dx="1281" dy="574" grid="1" gridSize="10" guides="1" tooltips="1" connect="1" arrows="1" fold="1" page="1" pageScale="1" pageWidth="827" pageHeight="1169" math="0" shadow="0">
      <root>
        <mxCell id="0" />
        <mxCell id="1" parent="0" />
        <mxCell id="gM8NhWQNJBSMhNSL-igS-1" value="&lt;b&gt;&lt;font style=&quot;font-size: 12px;&quot;&gt;:System&lt;/font&gt;&lt;/b&gt;" style="shape=umlLifeline;perimeter=lifelinePerimeter;whiteSpace=wrap;html=1;container=1;dropTarget=0;collapsible=0;recursiveResize=0;outlineConnect=0;portConstraint=eastwest;newEdgeStyle={&quot;curved&quot;:0,&quot;rounded&quot;:0};" parent="1" vertex="1">
          <mxGeometry x="375" y="94" width="100" height="626" as="geometry" />
        </mxCell>
        <mxCell id="gM8NhWQNJBSMhNSL-igS-2" value="" style="html=1;points=[[0,0,0,0,5],[0,1,0,0,-5],[1,0,0,0,5],[1,1,0,0,-5]];perimeter=orthogonalPerimeter;outlineConnect=0;targetShapes=umlLifeline;portConstraint=eastwest;newEdgeStyle={&quot;curved&quot;:0,&quot;rounded&quot;:0};" parent="gM8NhWQNJBSMhNSL-igS-1" vertex="1">
          <mxGeometry x="45" y="44" width="10" height="526" as="geometry" />
        </mxCell>
        <mxCell id="gM8NhWQNJBSMhNSL-igS-3" value="" style="shape=umlLifeline;perimeter=lifelinePerimeter;whiteSpace=wrap;html=1;container=1;dropTarget=0;collapsible=0;recursiveResize=0;outlineConnect=0;portConstraint=eastwest;newEdgeStyle={&quot;curved&quot;:0,&quot;rounded&quot;:0};participant=umlActor;" parent="1" vertex="1">
          <mxGeometry x="151" y="114" width="20" height="606" as="geometry" />
        </mxCell>
        <mxCell id="gM8NhWQNJBSMhNSL-igS-4" value="" style="html=1;points=[[0,0,0,0,5],[0,1,0,0,-5],[1,0,0,0,5],[1,1,0,0,-5]];perimeter=orthogonalPerimeter;outlineConnect=0;targetShapes=umlLifeline;portConstraint=eastwest;newEdgeStyle={&quot;curved&quot;:0,&quot;rounded&quot;:0};" parent="gM8NhWQNJBSMhNSL-igS-3" vertex="1">
          <mxGeometry x="5" y="40" width="10" height="520" as="geometry" />
        </mxCell>
        <mxCell id="gM8NhWQNJBSMhNSL-igS-5" value="&lt;font style=&quot;font-size: 12px;&quot;&gt;&lt;b style=&quot;&quot;&gt;Student&lt;/b&gt;&lt;/font&gt;" style="text;html=1;align=center;verticalAlign=middle;resizable=0;points=[];autosize=1;strokeColor=none;fillColor=none;" parent="1" vertex="1">
          <mxGeometry x="130" y="80" width="70" height="30" as="geometry" />
        </mxCell>
        <mxCell id="gM8NhWQNJBSMhNSL-igS-6" value="alt" style="shape=umlFrame;whiteSpace=wrap;html=1;pointerEvents=0;" parent="1" vertex="1">
          <mxGeometry x="375" y="200" width="355" height="164" as="geometry" />
        </mxCell>
        <mxCell id="gM8NhWQNJBSMhNSL-igS-7" value="&lt;b&gt;logIn()&lt;/b&gt;" style="html=1;verticalAlign=bottom;endArrow=block;curved=0;rounded=0;" parent="1" edge="1">
          <mxGeometry width="80" relative="1" as="geometry">
            <mxPoint x="165.9999999999999" y="160" as="sourcePoint" />
            <mxPoint x="420" y="160" as="targetPoint" />
          </mxGeometry>
        </mxCell>
        <mxCell id="gM8NhWQNJBSMhNSL-igS-8" value="&lt;font style=&quot;font-size: 10px;&quot;&gt;&lt;b style=&quot;&quot;&gt;[IsAuthanticated == true]&lt;/b&gt;&lt;/font&gt;" style="text;html=1;align=center;verticalAlign=middle;resizable=0;points=[];autosize=1;strokeColor=none;fillColor=none;" parent="1" vertex="1">
          <mxGeometry x="427" y="200" width="140" height="30" as="geometry" />
        </mxCell>
        <mxCell id="gM8NhWQNJBSMhNSL-igS-9" value="" style="endArrow=none;dashed=1;html=1;dashPattern=1 3;strokeWidth=2;rounded=0;exitX=0.002;exitY=0.397;exitDx=0;exitDy=0;exitPerimeter=0;entryX=0.996;entryY=0.399;entryDx=0;entryDy=0;entryPerimeter=0;" parent="1" source="gM8NhWQNJBSMhNSL-igS-6" target="gM8NhWQNJBSMhNSL-igS-6" edge="1">
          <mxGeometry width="50" height="50" relative="1" as="geometry">
            <mxPoint x="361.31999999999994" y="268.45000000000005" as="sourcePoint" />
            <mxPoint x="570" y="265" as="targetPoint" />
          </mxGeometry>
        </mxCell>
        <mxCell id="gM8NhWQNJBSMhNSL-igS-10" value="&lt;b&gt;LogIn Success&lt;/b&gt;" style="html=1;verticalAlign=bottom;endArrow=open;dashed=1;endSize=8;curved=0;rounded=0;" parent="1" edge="1">
          <mxGeometry relative="1" as="geometry">
            <mxPoint x="420" y="245" as="sourcePoint" />
            <mxPoint x="166" y="245" as="targetPoint" />
          </mxGeometry>
        </mxCell>
        <mxCell id="gM8NhWQNJBSMhNSL-igS-11" value="&lt;b&gt;:DbController&lt;/b&gt;" style="shape=umlLifeline;perimeter=lifelinePerimeter;whiteSpace=wrap;html=1;container=1;dropTarget=0;collapsible=0;recursiveResize=0;outlineConnect=0;portConstraint=eastwest;newEdgeStyle={&quot;curved&quot;:0,&quot;rounded&quot;:0};" parent="1" vertex="1">
          <mxGeometry x="640" y="94" width="100" height="626" as="geometry" />
        </mxCell>
        <mxCell id="gM8NhWQNJBSMhNSL-igS-12" value="" style="html=1;points=[[0,0,0,0,5],[0,1,0,0,-5],[1,0,0,0,5],[1,1,0,0,-5]];perimeter=orthogonalPerimeter;outlineConnect=0;targetShapes=umlLifeline;portConstraint=eastwest;newEdgeStyle={&quot;curved&quot;:0,&quot;rounded&quot;:0};" parent="gM8NhWQNJBSMhNSL-igS-11" vertex="1">
          <mxGeometry x="45" y="70" width="10" height="20" as="geometry" />
        </mxCell>
        <mxCell id="gM8NhWQNJBSMhNSL-igS-14" value="&lt;b&gt;Check()&lt;/b&gt;" style="html=1;verticalAlign=bottom;endArrow=block;curved=0;rounded=0;" parent="1" edge="1">
          <mxGeometry width="80" relative="1" as="geometry">
            <mxPoint x="430" y="170" as="sourcePoint" />
            <mxPoint x="685" y="170" as="targetPoint" />
          </mxGeometry>
        </mxCell>
        <mxCell id="gM8NhWQNJBSMhNSL-igS-15" value="break" style="shape=umlFrame;whiteSpace=wrap;html=1;pointerEvents=0;" parent="1" vertex="1">
          <mxGeometry x="388" y="280" width="332" height="71" as="geometry" />
        </mxCell>
        <mxCell id="gM8NhWQNJBSMhNSL-igS-16" value="&lt;b style=&quot;font-size: 10px;&quot;&gt;[IsAuthanticated == false]&lt;/b&gt;" style="text;html=1;align=center;verticalAlign=middle;resizable=0;points=[];autosize=1;strokeColor=none;fillColor=none;" parent="1" vertex="1">
          <mxGeometry x="438" y="277" width="150" height="30" as="geometry" />
        </mxCell>
        <mxCell id="gM8NhWQNJBSMhNSL-igS-17" value="&lt;b&gt;error message&lt;/b&gt;" style="html=1;verticalAlign=bottom;endArrow=open;dashed=1;endSize=8;curved=0;rounded=0;exitX=-0.178;exitY=0.773;exitDx=0;exitDy=0;exitPerimeter=0;" parent="1" edge="1">
          <mxGeometry relative="1" as="geometry">
            <mxPoint x="418.22" y="328.3299999999999" as="sourcePoint" />
            <mxPoint x="166" y="328.3299999999999" as="targetPoint" />
          </mxGeometry>
        </mxCell>
        <mxCell id="gM8NhWQNJBSMhNSL-igS-18" value="NavigateSearchCoursesSection()" style="html=1;verticalAlign=bottom;endArrow=block;curved=0;rounded=0;entryX=0;entryY=1;entryDx=0;entryDy=-5;entryPerimeter=0;" parent="1" edge="1">
          <mxGeometry width="80" relative="1" as="geometry">
            <mxPoint x="166" y="384" as="sourcePoint" />
            <mxPoint x="420" y="384" as="targetPoint" />
          </mxGeometry>
        </mxCell>
        <mxCell id="gM8NhWQNJBSMhNSL-igS-19" value="CourseDataIsAvailable()" style="html=1;verticalAlign=bottom;endArrow=block;curved=0;rounded=0;" parent="1" edge="1">
          <mxGeometry x="-0.0588" y="3" width="80" relative="1" as="geometry">
            <mxPoint x="430" y="521" as="sourcePoint" />
            <mxPoint x="685" y="521" as="targetPoint" />
            <mxPoint as="offset" />
          </mxGeometry>
        </mxCell>
        <mxCell id="gM8NhWQNJBSMhNSL-igS-20" value="alt" style="shape=umlFrame;whiteSpace=wrap;html=1;pointerEvents=0;" parent="1" vertex="1">
          <mxGeometry x="360" y="550" width="360" height="120" as="geometry" />
        </mxCell>
        <mxCell id="gM8NhWQNJBSMhNSL-igS-21" value="" style="html=1;points=[[0,0,0,0,5],[0,1,0,0,-5],[1,0,0,0,5],[1,1,0,0,-5]];perimeter=orthogonalPerimeter;outlineConnect=0;targetShapes=umlLifeline;portConstraint=eastwest;newEdgeStyle={&quot;curved&quot;:0,&quot;rounded&quot;:0};" parent="1" vertex="1">
          <mxGeometry x="685" y="500" width="10" height="40" as="geometry" />
        </mxCell>
        <mxCell id="gM8NhWQNJBSMhNSL-igS-22" value="&lt;b&gt;[&lt;/b&gt;&lt;span style=&quot;font-size: 11px; background-color: rgb(255, 255, 255);&quot;&gt;&lt;b&gt;IsAvailable&lt;/b&gt;&lt;/span&gt;&lt;b&gt;&amp;nbsp;== true]&lt;/b&gt;" style="text;html=1;align=center;verticalAlign=middle;resizable=0;points=[];autosize=1;strokeColor=none;fillColor=none;" parent="1" vertex="1">
          <mxGeometry x="442" y="545" width="130" height="30" as="geometry" />
        </mxCell>
        <mxCell id="gM8NhWQNJBSMhNSL-igS-24" value="" style="endArrow=none;dashed=1;html=1;dashPattern=1 3;strokeWidth=2;rounded=0;exitX=0;exitY=0.745;exitDx=0;exitDy=0;exitPerimeter=0;entryX=0.99;entryY=0.726;entryDx=0;entryDy=0;entryPerimeter=0;" parent="1" edge="1">
          <mxGeometry width="50" height="50" relative="1" as="geometry">
            <mxPoint x="360" y="612.5150000000001" as="sourcePoint" />
            <mxPoint x="716.4000000000001" y="609.722" as="targetPoint" />
          </mxGeometry>
        </mxCell>
        <mxCell id="gM8NhWQNJBSMhNSL-igS-27" value="DisplayCourses()" style="html=1;verticalAlign=bottom;endArrow=open;dashed=1;endSize=8;curved=0;rounded=0;" parent="1" edge="1">
          <mxGeometry x="0.2355" relative="1" as="geometry">
            <mxPoint x="420" y="597.7860000000001" as="sourcePoint" />
            <mxPoint x="166" y="597.7860000000001" as="targetPoint" />
            <mxPoint as="offset" />
          </mxGeometry>
        </mxCell>
        <mxCell id="gM8NhWQNJBSMhNSL-igS-29" value="&lt;b&gt;[&lt;/b&gt;&lt;span style=&quot;font-size: 11px; background-color: rgb(255, 255, 255);&quot;&gt;&lt;b&gt;IsAvailable&amp;nbsp;&lt;/b&gt;&lt;/span&gt;&lt;b&gt;== false]&lt;/b&gt;" style="text;html=1;align=center;verticalAlign=middle;resizable=0;points=[];autosize=1;strokeColor=none;fillColor=none;" parent="1" vertex="1">
          <mxGeometry x="437" y="607" width="140" height="30" as="geometry" />
        </mxCell>
        <mxCell id="gM8NhWQNJBSMhNSL-igS-30" value="&lt;b&gt;error message&lt;/b&gt;" style="html=1;verticalAlign=bottom;endArrow=open;dashed=1;endSize=8;curved=0;rounded=0;" parent="1" edge="1">
          <mxGeometry x="0.2355" relative="1" as="geometry">
            <mxPoint x="420" y="650.7860000000001" as="sourcePoint" />
            <mxPoint x="166" y="651" as="targetPoint" />
            <mxPoint as="offset" />
          </mxGeometry>
        </mxCell>
        <mxCell id="gM8NhWQNJBSMhNSL-igS-44" value="EnterSearchKeyWord()" style="html=1;verticalAlign=bottom;endArrow=block;curved=0;rounded=0;" parent="1" edge="1">
          <mxGeometry width="80" relative="1" as="geometry">
            <mxPoint x="166" y="414" as="sourcePoint" />
            <mxPoint x="420" y="414" as="targetPoint" />
          </mxGeometry>
        </mxCell>
        <mxCell id="et9kAQ3kAJtkIjYM68ED-4" value="break" style="shape=umlFrame;whiteSpace=wrap;html=1;pointerEvents=0;" parent="1" vertex="1">
          <mxGeometry x="350" y="428" width="200" height="65" as="geometry" />
        </mxCell>
        <mxCell id="et9kAQ3kAJtkIjYM68ED-5" value="&lt;b&gt;&lt;font style=&quot;font-size: 10px;&quot;&gt;[InValidInputSearch== true]&lt;/font&gt;&lt;/b&gt;" style="text;html=1;align=center;verticalAlign=middle;resizable=0;points=[];autosize=1;strokeColor=none;fillColor=none;" parent="1" vertex="1">
          <mxGeometry x="400" y="428" width="150" height="30" as="geometry" />
        </mxCell>
        <mxCell id="et9kAQ3kAJtkIjYM68ED-6" value="&lt;b&gt;error message&lt;/b&gt;" style="html=1;verticalAlign=bottom;endArrow=open;dashed=1;endSize=8;curved=0;rounded=0;" parent="1" edge="1">
          <mxGeometry x="0.2355" relative="1" as="geometry">
            <mxPoint x="420" y="470.21600000000007" as="sourcePoint" />
            <mxPoint x="166" y="470.43" as="targetPoint" />
            <mxPoint as="offset" />
          </mxGeometry>
        </mxCell>
        <mxCell id="lxTxLUGpHuOrVJoQ6r8t-1" value="&lt;b style=&quot;forced-color-adjust: none; color: rgb(0, 0, 0); font-family: Helvetica; font-size: 24px; font-style: normal; font-variant-ligatures: normal; font-variant-caps: normal; letter-spacing: normal; orphans: 2; text-align: center; text-indent: 0px; text-transform: none; widows: 2; word-spacing: 0px; -webkit-text-stroke-width: 0px; white-space: nowrap; background-color: rgb(236, 236, 236); text-decoration-thickness: initial; text-decoration-style: initial; text-decoration-color: initial;&quot;&gt;&lt;u style=&quot;forced-color-adjust: none;&quot;&gt;Search For Course&lt;/u&gt;&lt;/b&gt;" style="text;whiteSpace=wrap;html=1;" vertex="1" parent="1">
          <mxGeometry x="310" y="10" width="230" height="50" as="geometry" />
        </mxCell>
      </root>
    </mxGraphModel>
  </diagram>
  <diagram id="ZrtFUXiN12jXdEBE-7tJ" name="download online course ">
    <mxGraphModel dx="1507" dy="675" grid="1" gridSize="10" guides="1" tooltips="1" connect="1" arrows="1" fold="1" page="1" pageScale="1" pageWidth="827" pageHeight="1169" math="0" shadow="0">
      <root>
        <mxCell id="0" />
        <mxCell id="1" parent="0" />
        <mxCell id="pV78BUmaUbyYCkdJzvIP-1" value="&lt;b&gt;&lt;font style=&quot;font-size: 12px;&quot;&gt;:System&lt;/font&gt;&lt;/b&gt;" style="shape=umlLifeline;perimeter=lifelinePerimeter;whiteSpace=wrap;html=1;container=1;dropTarget=0;collapsible=0;recursiveResize=0;outlineConnect=0;portConstraint=eastwest;newEdgeStyle={&quot;curved&quot;:0,&quot;rounded&quot;:0};" parent="1" vertex="1">
          <mxGeometry x="375" y="94" width="100" height="746" as="geometry" />
        </mxCell>
        <mxCell id="pV78BUmaUbyYCkdJzvIP-2" value="" style="html=1;points=[[0,0,0,0,5],[0,1,0,0,-5],[1,0,0,0,5],[1,1,0,0,-5]];perimeter=orthogonalPerimeter;outlineConnect=0;targetShapes=umlLifeline;portConstraint=eastwest;newEdgeStyle={&quot;curved&quot;:0,&quot;rounded&quot;:0};" parent="pV78BUmaUbyYCkdJzvIP-1" vertex="1">
          <mxGeometry x="45" y="44" width="10" height="676" as="geometry" />
        </mxCell>
        <mxCell id="pV78BUmaUbyYCkdJzvIP-3" value="" style="shape=umlLifeline;perimeter=lifelinePerimeter;whiteSpace=wrap;html=1;container=1;dropTarget=0;collapsible=0;recursiveResize=0;outlineConnect=0;portConstraint=eastwest;newEdgeStyle={&quot;curved&quot;:0,&quot;rounded&quot;:0};participant=umlActor;" parent="1" vertex="1">
          <mxGeometry x="151" y="114" width="20" height="726" as="geometry" />
        </mxCell>
        <mxCell id="pV78BUmaUbyYCkdJzvIP-4" value="" style="html=1;points=[[0,0,0,0,5],[0,1,0,0,-5],[1,0,0,0,5],[1,1,0,0,-5]];perimeter=orthogonalPerimeter;outlineConnect=0;targetShapes=umlLifeline;portConstraint=eastwest;newEdgeStyle={&quot;curved&quot;:0,&quot;rounded&quot;:0};" parent="pV78BUmaUbyYCkdJzvIP-3" vertex="1">
          <mxGeometry x="5" y="40" width="10" height="670" as="geometry" />
        </mxCell>
        <mxCell id="pV78BUmaUbyYCkdJzvIP-5" value="&lt;font style=&quot;font-size: 12px;&quot;&gt;&lt;b style=&quot;&quot;&gt;Student&lt;/b&gt;&lt;/font&gt;" style="text;html=1;align=center;verticalAlign=middle;resizable=0;points=[];autosize=1;strokeColor=none;fillColor=none;" parent="1" vertex="1">
          <mxGeometry x="130" y="80" width="70" height="30" as="geometry" />
        </mxCell>
        <mxCell id="pV78BUmaUbyYCkdJzvIP-6" value="alt" style="shape=umlFrame;whiteSpace=wrap;html=1;pointerEvents=0;" parent="1" vertex="1">
          <mxGeometry x="375" y="200" width="355" height="164" as="geometry" />
        </mxCell>
        <mxCell id="pV78BUmaUbyYCkdJzvIP-7" value="&lt;b&gt;logIn()&lt;/b&gt;" style="html=1;verticalAlign=bottom;endArrow=block;curved=0;rounded=0;" parent="1" edge="1">
          <mxGeometry width="80" relative="1" as="geometry">
            <mxPoint x="165.9999999999999" y="160" as="sourcePoint" />
            <mxPoint x="420" y="160" as="targetPoint" />
          </mxGeometry>
        </mxCell>
        <mxCell id="pV78BUmaUbyYCkdJzvIP-8" value="&lt;font style=&quot;font-size: 10px;&quot;&gt;&lt;b style=&quot;&quot;&gt;[IsAuthanticated == true]&lt;/b&gt;&lt;/font&gt;" style="text;html=1;align=center;verticalAlign=middle;resizable=0;points=[];autosize=1;strokeColor=none;fillColor=none;" parent="1" vertex="1">
          <mxGeometry x="427" y="200" width="140" height="30" as="geometry" />
        </mxCell>
        <mxCell id="pV78BUmaUbyYCkdJzvIP-9" value="" style="endArrow=none;dashed=1;html=1;dashPattern=1 3;strokeWidth=2;rounded=0;exitX=0.002;exitY=0.397;exitDx=0;exitDy=0;exitPerimeter=0;entryX=0.996;entryY=0.399;entryDx=0;entryDy=0;entryPerimeter=0;" parent="1" source="pV78BUmaUbyYCkdJzvIP-6" target="pV78BUmaUbyYCkdJzvIP-6" edge="1">
          <mxGeometry width="50" height="50" relative="1" as="geometry">
            <mxPoint x="361.31999999999994" y="268.45000000000005" as="sourcePoint" />
            <mxPoint x="570" y="265" as="targetPoint" />
          </mxGeometry>
        </mxCell>
        <mxCell id="pV78BUmaUbyYCkdJzvIP-10" value="&lt;b&gt;LogIn Success&lt;/b&gt;" style="html=1;verticalAlign=bottom;endArrow=open;dashed=1;endSize=8;curved=0;rounded=0;" parent="1" edge="1">
          <mxGeometry relative="1" as="geometry">
            <mxPoint x="420" y="245" as="sourcePoint" />
            <mxPoint x="166" y="245" as="targetPoint" />
          </mxGeometry>
        </mxCell>
        <mxCell id="pV78BUmaUbyYCkdJzvIP-11" value="&lt;b&gt;:DbController&lt;/b&gt;" style="shape=umlLifeline;perimeter=lifelinePerimeter;whiteSpace=wrap;html=1;container=1;dropTarget=0;collapsible=0;recursiveResize=0;outlineConnect=0;portConstraint=eastwest;newEdgeStyle={&quot;curved&quot;:0,&quot;rounded&quot;:0};" parent="1" vertex="1">
          <mxGeometry x="640" y="94" width="100" height="746" as="geometry" />
        </mxCell>
        <mxCell id="pV78BUmaUbyYCkdJzvIP-12" value="" style="html=1;points=[[0,0,0,0,5],[0,1,0,0,-5],[1,0,0,0,5],[1,1,0,0,-5]];perimeter=orthogonalPerimeter;outlineConnect=0;targetShapes=umlLifeline;portConstraint=eastwest;newEdgeStyle={&quot;curved&quot;:0,&quot;rounded&quot;:0};" parent="pV78BUmaUbyYCkdJzvIP-11" vertex="1">
          <mxGeometry x="45" y="70" width="10" height="20" as="geometry" />
        </mxCell>
        <mxCell id="pV78BUmaUbyYCkdJzvIP-13" value="" style="html=1;points=[[0,0,0,0,5],[0,1,0,0,-5],[1,0,0,0,5],[1,1,0,0,-5]];perimeter=orthogonalPerimeter;outlineConnect=0;targetShapes=umlLifeline;portConstraint=eastwest;newEdgeStyle={&quot;curved&quot;:0,&quot;rounded&quot;:0};" parent="pV78BUmaUbyYCkdJzvIP-11" vertex="1">
          <mxGeometry x="45" y="452" width="10" height="23" as="geometry" />
        </mxCell>
        <mxCell id="pV78BUmaUbyYCkdJzvIP-14" value="&lt;b&gt;Check()&lt;/b&gt;" style="html=1;verticalAlign=bottom;endArrow=block;curved=0;rounded=0;" parent="1" edge="1">
          <mxGeometry width="80" relative="1" as="geometry">
            <mxPoint x="430" y="170" as="sourcePoint" />
            <mxPoint x="685" y="170" as="targetPoint" />
          </mxGeometry>
        </mxCell>
        <mxCell id="pV78BUmaUbyYCkdJzvIP-15" value="break" style="shape=umlFrame;whiteSpace=wrap;html=1;pointerEvents=0;" parent="1" vertex="1">
          <mxGeometry x="388" y="280" width="332" height="71" as="geometry" />
        </mxCell>
        <mxCell id="pV78BUmaUbyYCkdJzvIP-16" value="&lt;b style=&quot;font-size: 10px;&quot;&gt;[IsAuthanticated == false]&lt;/b&gt;" style="text;html=1;align=center;verticalAlign=middle;resizable=0;points=[];autosize=1;strokeColor=none;fillColor=none;" parent="1" vertex="1">
          <mxGeometry x="438" y="277" width="150" height="30" as="geometry" />
        </mxCell>
        <mxCell id="pV78BUmaUbyYCkdJzvIP-17" value="&lt;b&gt;error message&lt;/b&gt;" style="html=1;verticalAlign=bottom;endArrow=open;dashed=1;endSize=8;curved=0;rounded=0;exitX=-0.178;exitY=0.773;exitDx=0;exitDy=0;exitPerimeter=0;" parent="1" edge="1">
          <mxGeometry relative="1" as="geometry">
            <mxPoint x="418.22" y="328.3299999999999" as="sourcePoint" />
            <mxPoint x="166" y="328.3299999999999" as="targetPoint" />
          </mxGeometry>
        </mxCell>
        <mxCell id="pV78BUmaUbyYCkdJzvIP-18" value="NavigateCourses()" style="html=1;verticalAlign=bottom;endArrow=block;curved=0;rounded=0;entryX=0;entryY=1;entryDx=0;entryDy=-5;entryPerimeter=0;" parent="1" edge="1">
          <mxGeometry width="80" relative="1" as="geometry">
            <mxPoint x="166" y="384" as="sourcePoint" />
            <mxPoint x="420" y="384" as="targetPoint" />
          </mxGeometry>
        </mxCell>
        <mxCell id="pV78BUmaUbyYCkdJzvIP-23" value="&lt;span style=&quot;font-size: 12px;&quot;&gt;IsDownloadablecontent()&lt;/span&gt;" style="html=1;verticalAlign=bottom;endArrow=block;curved=0;rounded=0;" parent="1" edge="1">
          <mxGeometry width="80" relative="1" as="geometry">
            <mxPoint x="430" y="555" as="sourcePoint" />
            <mxPoint x="685" y="555" as="targetPoint" />
          </mxGeometry>
        </mxCell>
        <mxCell id="pV78BUmaUbyYCkdJzvIP-25" value="alt" style="shape=umlFrame;whiteSpace=wrap;html=1;pointerEvents=0;" parent="1" vertex="1">
          <mxGeometry x="361" y="583" width="360" height="162" as="geometry" />
        </mxCell>
        <mxCell id="pV78BUmaUbyYCkdJzvIP-26" value="&lt;b&gt;[&lt;/b&gt;&lt;span style=&quot;background-color: rgb(255, 255, 255);&quot;&gt;IsDownloadablecontent&amp;nbsp;&lt;/span&gt;&lt;b&gt;== true]&lt;/b&gt;" style="text;html=1;align=center;verticalAlign=middle;resizable=0;points=[];autosize=1;strokeColor=none;fillColor=none;" parent="1" vertex="1">
          <mxGeometry x="448" y="577" width="200" height="30" as="geometry" />
        </mxCell>
        <mxCell id="pV78BUmaUbyYCkdJzvIP-32" value="" style="endArrow=none;dashed=1;html=1;dashPattern=1 3;strokeWidth=2;rounded=0;exitX=0;exitY=0.745;exitDx=0;exitDy=0;exitPerimeter=0;entryX=0.99;entryY=0.726;entryDx=0;entryDy=0;entryPerimeter=0;" parent="1" edge="1">
          <mxGeometry width="50" height="50" relative="1" as="geometry">
            <mxPoint x="362" y="666.5150000000001" as="sourcePoint" />
            <mxPoint x="718.4000000000001" y="663.722" as="targetPoint" />
          </mxGeometry>
        </mxCell>
        <mxCell id="pV78BUmaUbyYCkdJzvIP-33" value="" style="html=1;points=[[0,0,0,0,5],[0,1,0,0,-5],[1,0,0,0,5],[1,1,0,0,-5]];perimeter=orthogonalPerimeter;outlineConnect=0;targetShapes=umlLifeline;portConstraint=eastwest;newEdgeStyle={&quot;curved&quot;:0,&quot;rounded&quot;:0};" parent="1" vertex="1">
          <mxGeometry x="685" y="614" width="10" height="23" as="geometry" />
        </mxCell>
        <mxCell id="pV78BUmaUbyYCkdJzvIP-34" value="GetContent()" style="html=1;verticalAlign=bottom;endArrow=block;curved=0;rounded=0;" parent="1" edge="1">
          <mxGeometry width="80" relative="1" as="geometry">
            <mxPoint x="430" y="631" as="sourcePoint" />
            <mxPoint x="685" y="631" as="targetPoint" />
          </mxGeometry>
        </mxCell>
        <mxCell id="pV78BUmaUbyYCkdJzvIP-35" value="PrepareContentToDownload()" style="html=1;verticalAlign=bottom;endArrow=open;dashed=1;endSize=8;curved=0;rounded=0;exitX=0.1;exitY=0.862;exitDx=0;exitDy=0;exitPerimeter=0;" parent="1" edge="1">
          <mxGeometry relative="1" as="geometry">
            <mxPoint x="421" y="644.5" as="sourcePoint" />
            <mxPoint x="166" y="644.5" as="targetPoint" />
          </mxGeometry>
        </mxCell>
        <mxCell id="pV78BUmaUbyYCkdJzvIP-36" value="break" style="shape=umlFrame;whiteSpace=wrap;html=1;pointerEvents=0;" parent="1" vertex="1">
          <mxGeometry x="369" y="674" width="341" height="60" as="geometry" />
        </mxCell>
        <mxCell id="pV78BUmaUbyYCkdJzvIP-37" value="&lt;b style=&quot;text-align: center; text-wrap-mode: nowrap;&quot;&gt;[&lt;/b&gt;&lt;span style=&quot;text-align: center; text-wrap-mode: nowrap; background-color: rgb(255, 255, 255);&quot;&gt;IsDownloadablecontent&amp;nbsp;&lt;/span&gt;&lt;b style=&quot;text-align: center; text-wrap-mode: nowrap;&quot;&gt;== false]&lt;/b&gt;" style="text;whiteSpace=wrap;html=1;" parent="1" vertex="1">
          <mxGeometry x="434.5" y="674" width="200" height="40" as="geometry" />
        </mxCell>
        <mxCell id="pV78BUmaUbyYCkdJzvIP-38" value="&lt;b&gt;error message&lt;/b&gt;" style="html=1;verticalAlign=bottom;endArrow=open;dashed=1;endSize=8;curved=0;rounded=0;exitX=0.1;exitY=0.862;exitDx=0;exitDy=0;exitPerimeter=0;" parent="1" edge="1">
          <mxGeometry relative="1" as="geometry">
            <mxPoint x="420" y="719.5" as="sourcePoint" />
            <mxPoint x="165" y="719.5" as="targetPoint" />
          </mxGeometry>
        </mxCell>
        <mxCell id="pV78BUmaUbyYCkdJzvIP-44" value="SelectCourse()" style="html=1;verticalAlign=bottom;endArrow=block;curved=0;rounded=0;" parent="1" edge="1">
          <mxGeometry width="80" relative="1" as="geometry">
            <mxPoint x="166" y="480" as="sourcePoint" />
            <mxPoint x="419.4999999999998" y="480" as="targetPoint" />
          </mxGeometry>
        </mxCell>
        <mxCell id="pV78BUmaUbyYCkdJzvIP-45" value="ClickDownloadIcon()" style="html=1;verticalAlign=bottom;endArrow=block;curved=0;rounded=0;" parent="1" edge="1">
          <mxGeometry width="80" relative="1" as="geometry">
            <mxPoint x="166" y="521" as="sourcePoint" />
            <mxPoint x="419.4999999999998" y="521" as="targetPoint" />
          </mxGeometry>
        </mxCell>
        <mxCell id="pV78BUmaUbyYCkdJzvIP-52" value="CoursesPage()" style="html=1;verticalAlign=bottom;endArrow=open;dashed=1;endSize=8;curved=0;rounded=0;" parent="1" edge="1">
          <mxGeometry relative="1" as="geometry">
            <mxPoint x="419.5" y="440" as="sourcePoint" />
            <mxPoint x="166" y="440" as="targetPoint" />
          </mxGeometry>
        </mxCell>
        <mxCell id="pV78BUmaUbyYCkdJzvIP-53" value="Download()" style="html=1;verticalAlign=bottom;endArrow=block;curved=0;rounded=0;" parent="1" edge="1">
          <mxGeometry width="80" relative="1" as="geometry">
            <mxPoint x="160.81034482758605" y="799" as="sourcePoint" />
            <mxPoint x="420" y="799" as="targetPoint" />
          </mxGeometry>
        </mxCell>
        <mxCell id="zuLU7ZPl8fU6dhDl0t20-1" value="&lt;b style=&quot;forced-color-adjust: none; color: rgb(0, 0, 0); font-family: Helvetica; font-style: normal; font-variant-ligatures: normal; font-variant-caps: normal; letter-spacing: normal; orphans: 2; text-indent: 0px; text-transform: none; widows: 2; word-spacing: 0px; -webkit-text-stroke-width: 0px; white-space: nowrap; text-decoration-thickness: initial; text-decoration-style: initial; text-decoration-color: initial; font-size: 24px; text-align: center; background-color: rgb(236, 236, 236);&quot;&gt;&lt;u style=&quot;forced-color-adjust: none;&quot;&gt;Download Online Course&lt;/u&gt;&lt;/b&gt;" style="text;whiteSpace=wrap;html=1;" vertex="1" parent="1">
          <mxGeometry x="270" y="10" width="240" height="50" as="geometry" />
        </mxCell>
      </root>
    </mxGraphModel>
  </diagram>
  <diagram id="web19aoXfbNUhZ9Pni10" name="Watch online course">
    <mxGraphModel dx="1507" dy="675" grid="1" gridSize="10" guides="1" tooltips="1" connect="1" arrows="1" fold="1" page="1" pageScale="1" pageWidth="827" pageHeight="1169" math="0" shadow="0">
      <root>
        <mxCell id="0" />
        <mxCell id="1" parent="0" />
        <mxCell id="9_czOtpSCHXQDGf4dhXp-1" value="&lt;b&gt;&lt;font style=&quot;font-size: 12px;&quot;&gt;:System&lt;/font&gt;&lt;/b&gt;" style="shape=umlLifeline;perimeter=lifelinePerimeter;whiteSpace=wrap;html=1;container=1;dropTarget=0;collapsible=0;recursiveResize=0;outlineConnect=0;portConstraint=eastwest;newEdgeStyle={&quot;curved&quot;:0,&quot;rounded&quot;:0};" vertex="1" parent="1">
          <mxGeometry x="375" y="94" width="100" height="706" as="geometry" />
        </mxCell>
        <mxCell id="9_czOtpSCHXQDGf4dhXp-2" value="" style="html=1;points=[[0,0,0,0,5],[0,1,0,0,-5],[1,0,0,0,5],[1,1,0,0,-5]];perimeter=orthogonalPerimeter;outlineConnect=0;targetShapes=umlLifeline;portConstraint=eastwest;newEdgeStyle={&quot;curved&quot;:0,&quot;rounded&quot;:0};" vertex="1" parent="9_czOtpSCHXQDGf4dhXp-1">
          <mxGeometry x="45" y="44" width="10" height="616" as="geometry" />
        </mxCell>
        <mxCell id="9_czOtpSCHXQDGf4dhXp-3" value="" style="shape=umlLifeline;perimeter=lifelinePerimeter;whiteSpace=wrap;html=1;container=1;dropTarget=0;collapsible=0;recursiveResize=0;outlineConnect=0;portConstraint=eastwest;newEdgeStyle={&quot;curved&quot;:0,&quot;rounded&quot;:0};participant=umlActor;" vertex="1" parent="1">
          <mxGeometry x="151" y="114" width="20" height="686" as="geometry" />
        </mxCell>
        <mxCell id="9_czOtpSCHXQDGf4dhXp-4" value="" style="html=1;points=[[0,0,0,0,5],[0,1,0,0,-5],[1,0,0,0,5],[1,1,0,0,-5]];perimeter=orthogonalPerimeter;outlineConnect=0;targetShapes=umlLifeline;portConstraint=eastwest;newEdgeStyle={&quot;curved&quot;:0,&quot;rounded&quot;:0};" vertex="1" parent="9_czOtpSCHXQDGf4dhXp-3">
          <mxGeometry x="5" y="40" width="10" height="580" as="geometry" />
        </mxCell>
        <mxCell id="9_czOtpSCHXQDGf4dhXp-5" value="&lt;font style=&quot;font-size: 12px;&quot;&gt;&lt;b style=&quot;&quot;&gt;Student&lt;/b&gt;&lt;/font&gt;" style="text;html=1;align=center;verticalAlign=middle;resizable=0;points=[];autosize=1;strokeColor=none;fillColor=none;" vertex="1" parent="1">
          <mxGeometry x="130" y="80" width="70" height="30" as="geometry" />
        </mxCell>
        <mxCell id="9_czOtpSCHXQDGf4dhXp-6" value="alt" style="shape=umlFrame;whiteSpace=wrap;html=1;pointerEvents=0;" vertex="1" parent="1">
          <mxGeometry x="375" y="200" width="355" height="164" as="geometry" />
        </mxCell>
        <mxCell id="9_czOtpSCHXQDGf4dhXp-7" value="&lt;b&gt;logIn()&lt;/b&gt;" style="html=1;verticalAlign=bottom;endArrow=block;curved=0;rounded=0;" edge="1" parent="1">
          <mxGeometry width="80" relative="1" as="geometry">
            <mxPoint x="165.9999999999999" y="160" as="sourcePoint" />
            <mxPoint x="420" y="160" as="targetPoint" />
          </mxGeometry>
        </mxCell>
        <mxCell id="9_czOtpSCHXQDGf4dhXp-8" value="&lt;font style=&quot;font-size: 10px;&quot;&gt;&lt;b style=&quot;&quot;&gt;[IsAuthanticated == true]&lt;/b&gt;&lt;/font&gt;" style="text;html=1;align=center;verticalAlign=middle;resizable=0;points=[];autosize=1;strokeColor=none;fillColor=none;" vertex="1" parent="1">
          <mxGeometry x="427" y="200" width="140" height="30" as="geometry" />
        </mxCell>
        <mxCell id="9_czOtpSCHXQDGf4dhXp-9" value="" style="endArrow=none;dashed=1;html=1;dashPattern=1 3;strokeWidth=2;rounded=0;exitX=0.002;exitY=0.397;exitDx=0;exitDy=0;exitPerimeter=0;entryX=0.996;entryY=0.399;entryDx=0;entryDy=0;entryPerimeter=0;" edge="1" parent="1" source="9_czOtpSCHXQDGf4dhXp-6" target="9_czOtpSCHXQDGf4dhXp-6">
          <mxGeometry width="50" height="50" relative="1" as="geometry">
            <mxPoint x="361.31999999999994" y="268.45000000000005" as="sourcePoint" />
            <mxPoint x="570" y="265" as="targetPoint" />
          </mxGeometry>
        </mxCell>
        <mxCell id="9_czOtpSCHXQDGf4dhXp-10" value="&lt;b&gt;LogIn Success&lt;/b&gt;" style="html=1;verticalAlign=bottom;endArrow=open;dashed=1;endSize=8;curved=0;rounded=0;" edge="1" parent="1">
          <mxGeometry relative="1" as="geometry">
            <mxPoint x="420" y="245" as="sourcePoint" />
            <mxPoint x="166" y="245" as="targetPoint" />
          </mxGeometry>
        </mxCell>
        <mxCell id="9_czOtpSCHXQDGf4dhXp-11" value="&lt;b&gt;:DbController&lt;/b&gt;" style="shape=umlLifeline;perimeter=lifelinePerimeter;whiteSpace=wrap;html=1;container=1;dropTarget=0;collapsible=0;recursiveResize=0;outlineConnect=0;portConstraint=eastwest;newEdgeStyle={&quot;curved&quot;:0,&quot;rounded&quot;:0};" vertex="1" parent="1">
          <mxGeometry x="640" y="94" width="100" height="706" as="geometry" />
        </mxCell>
        <mxCell id="9_czOtpSCHXQDGf4dhXp-12" value="" style="html=1;points=[[0,0,0,0,5],[0,1,0,0,-5],[1,0,0,0,5],[1,1,0,0,-5]];perimeter=orthogonalPerimeter;outlineConnect=0;targetShapes=umlLifeline;portConstraint=eastwest;newEdgeStyle={&quot;curved&quot;:0,&quot;rounded&quot;:0};" vertex="1" parent="9_czOtpSCHXQDGf4dhXp-11">
          <mxGeometry x="45" y="70" width="10" height="20" as="geometry" />
        </mxCell>
        <mxCell id="9_czOtpSCHXQDGf4dhXp-13" value="" style="html=1;points=[[0,0,0,0,5],[0,1,0,0,-5],[1,0,0,0,5],[1,1,0,0,-5]];perimeter=orthogonalPerimeter;outlineConnect=0;targetShapes=umlLifeline;portConstraint=eastwest;newEdgeStyle={&quot;curved&quot;:0,&quot;rounded&quot;:0};" vertex="1" parent="9_czOtpSCHXQDGf4dhXp-11">
          <mxGeometry x="45" y="408" width="10" height="23" as="geometry" />
        </mxCell>
        <mxCell id="9_czOtpSCHXQDGf4dhXp-33" value="" style="html=1;points=[[0,0,0,0,5],[0,1,0,0,-5],[1,0,0,0,5],[1,1,0,0,-5]];perimeter=orthogonalPerimeter;outlineConnect=0;targetShapes=umlLifeline;portConstraint=eastwest;newEdgeStyle={&quot;curved&quot;:0,&quot;rounded&quot;:0};" vertex="1" parent="9_czOtpSCHXQDGf4dhXp-11">
          <mxGeometry x="45" y="641" width="10" height="24" as="geometry" />
        </mxCell>
        <mxCell id="9_czOtpSCHXQDGf4dhXp-14" value="&lt;b&gt;Check()&lt;/b&gt;" style="html=1;verticalAlign=bottom;endArrow=block;curved=0;rounded=0;" edge="1" parent="1">
          <mxGeometry width="80" relative="1" as="geometry">
            <mxPoint x="430" y="170" as="sourcePoint" />
            <mxPoint x="685" y="170" as="targetPoint" />
          </mxGeometry>
        </mxCell>
        <mxCell id="9_czOtpSCHXQDGf4dhXp-15" value="break" style="shape=umlFrame;whiteSpace=wrap;html=1;pointerEvents=0;" vertex="1" parent="1">
          <mxGeometry x="388" y="280" width="332" height="71" as="geometry" />
        </mxCell>
        <mxCell id="9_czOtpSCHXQDGf4dhXp-16" value="&lt;b style=&quot;font-size: 10px;&quot;&gt;[IsAuthanticated == false]&lt;/b&gt;" style="text;html=1;align=center;verticalAlign=middle;resizable=0;points=[];autosize=1;strokeColor=none;fillColor=none;" vertex="1" parent="1">
          <mxGeometry x="438" y="277" width="150" height="30" as="geometry" />
        </mxCell>
        <mxCell id="9_czOtpSCHXQDGf4dhXp-17" value="&lt;b&gt;error message&lt;/b&gt;" style="html=1;verticalAlign=bottom;endArrow=open;dashed=1;endSize=8;curved=0;rounded=0;exitX=-0.178;exitY=0.773;exitDx=0;exitDy=0;exitPerimeter=0;" edge="1" parent="1">
          <mxGeometry relative="1" as="geometry">
            <mxPoint x="418.22" y="328.3299999999999" as="sourcePoint" />
            <mxPoint x="166" y="328.3299999999999" as="targetPoint" />
          </mxGeometry>
        </mxCell>
        <mxCell id="9_czOtpSCHXQDGf4dhXp-18" value="NavigateCourses()" style="html=1;verticalAlign=bottom;endArrow=block;curved=0;rounded=0;entryX=0;entryY=1;entryDx=0;entryDy=-5;entryPerimeter=0;" edge="1" parent="1">
          <mxGeometry width="80" relative="1" as="geometry">
            <mxPoint x="166" y="384" as="sourcePoint" />
            <mxPoint x="420" y="384" as="targetPoint" />
          </mxGeometry>
        </mxCell>
        <mxCell id="9_czOtpSCHXQDGf4dhXp-19" value="&lt;span style=&quot;font-size: 12px;&quot;&gt;IsAvailableContent()&lt;/span&gt;" style="html=1;verticalAlign=bottom;endArrow=block;curved=0;rounded=0;" edge="1" parent="1">
          <mxGeometry width="80" relative="1" as="geometry">
            <mxPoint x="430" y="511" as="sourcePoint" />
            <mxPoint x="685" y="511" as="targetPoint" />
          </mxGeometry>
        </mxCell>
        <mxCell id="9_czOtpSCHXQDGf4dhXp-20" value="alt" style="shape=umlFrame;whiteSpace=wrap;html=1;pointerEvents=0;" vertex="1" parent="1">
          <mxGeometry x="361" y="539" width="360" height="162" as="geometry" />
        </mxCell>
        <mxCell id="9_czOtpSCHXQDGf4dhXp-21" value="&lt;b&gt;[&lt;/b&gt;&lt;span style=&quot;background-color: rgb(255, 255, 255);&quot;&gt;IsAvailableContent&amp;nbsp;&lt;/span&gt;&lt;b&gt;== true]&lt;/b&gt;" style="text;html=1;align=center;verticalAlign=middle;resizable=0;points=[];autosize=1;strokeColor=none;fillColor=none;" vertex="1" parent="1">
          <mxGeometry x="463" y="533" width="170" height="30" as="geometry" />
        </mxCell>
        <mxCell id="9_czOtpSCHXQDGf4dhXp-22" value="" style="endArrow=none;dashed=1;html=1;dashPattern=1 3;strokeWidth=2;rounded=0;exitX=0;exitY=0.745;exitDx=0;exitDy=0;exitPerimeter=0;entryX=0.99;entryY=0.726;entryDx=0;entryDy=0;entryPerimeter=0;" edge="1" parent="1">
          <mxGeometry width="50" height="50" relative="1" as="geometry">
            <mxPoint x="362" y="622.5150000000001" as="sourcePoint" />
            <mxPoint x="718.4000000000001" y="619.722" as="targetPoint" />
          </mxGeometry>
        </mxCell>
        <mxCell id="9_czOtpSCHXQDGf4dhXp-23" value="" style="html=1;points=[[0,0,0,0,5],[0,1,0,0,-5],[1,0,0,0,5],[1,1,0,0,-5]];perimeter=orthogonalPerimeter;outlineConnect=0;targetShapes=umlLifeline;portConstraint=eastwest;newEdgeStyle={&quot;curved&quot;:0,&quot;rounded&quot;:0};" vertex="1" parent="1">
          <mxGeometry x="685" y="570" width="10" height="23" as="geometry" />
        </mxCell>
        <mxCell id="9_czOtpSCHXQDGf4dhXp-24" value="GetContent()" style="html=1;verticalAlign=bottom;endArrow=block;curved=0;rounded=0;" edge="1" parent="1">
          <mxGeometry width="80" relative="1" as="geometry">
            <mxPoint x="430" y="587" as="sourcePoint" />
            <mxPoint x="685" y="587" as="targetPoint" />
          </mxGeometry>
        </mxCell>
        <mxCell id="9_czOtpSCHXQDGf4dhXp-25" value="LoadContentToStream" style="html=1;verticalAlign=bottom;endArrow=open;dashed=1;endSize=8;curved=0;rounded=0;exitX=0.1;exitY=0.862;exitDx=0;exitDy=0;exitPerimeter=0;" edge="1" parent="1">
          <mxGeometry relative="1" as="geometry">
            <mxPoint x="421" y="600.5" as="sourcePoint" />
            <mxPoint x="166" y="600.5" as="targetPoint" />
          </mxGeometry>
        </mxCell>
        <mxCell id="9_czOtpSCHXQDGf4dhXp-26" value="break" style="shape=umlFrame;whiteSpace=wrap;html=1;pointerEvents=0;" vertex="1" parent="1">
          <mxGeometry x="369" y="630" width="341" height="60" as="geometry" />
        </mxCell>
        <mxCell id="9_czOtpSCHXQDGf4dhXp-27" value="&lt;b style=&quot;text-align: center; text-wrap-mode: nowrap;&quot;&gt;[&lt;/b&gt;&lt;span style=&quot;text-align: center; text-wrap-mode: nowrap; background-color: rgb(255, 255, 255);&quot;&gt;IsAvailableContent&amp;nbsp;&lt;/span&gt;&lt;b style=&quot;text-align: center; text-wrap-mode: nowrap;&quot;&gt;== false]&lt;/b&gt;" style="text;whiteSpace=wrap;html=1;" vertex="1" parent="1">
          <mxGeometry x="434.5" y="630" width="200" height="40" as="geometry" />
        </mxCell>
        <mxCell id="9_czOtpSCHXQDGf4dhXp-28" value="&lt;b&gt;error message&lt;/b&gt;" style="html=1;verticalAlign=bottom;endArrow=open;dashed=1;endSize=8;curved=0;rounded=0;exitX=0.1;exitY=0.862;exitDx=0;exitDy=0;exitPerimeter=0;" edge="1" parent="1">
          <mxGeometry relative="1" as="geometry">
            <mxPoint x="420" y="675.5" as="sourcePoint" />
            <mxPoint x="165" y="675.5" as="targetPoint" />
          </mxGeometry>
        </mxCell>
        <mxCell id="9_czOtpSCHXQDGf4dhXp-29" value="SelectCourse()" style="html=1;verticalAlign=bottom;endArrow=block;curved=0;rounded=0;" edge="1" parent="1">
          <mxGeometry width="80" relative="1" as="geometry">
            <mxPoint x="166" y="480" as="sourcePoint" />
            <mxPoint x="419.4999999999998" y="480" as="targetPoint" />
          </mxGeometry>
        </mxCell>
        <mxCell id="9_czOtpSCHXQDGf4dhXp-31" value="CoursesPage()" style="html=1;verticalAlign=bottom;endArrow=open;dashed=1;endSize=8;curved=0;rounded=0;" edge="1" parent="1">
          <mxGeometry relative="1" as="geometry">
            <mxPoint x="419.5" y="440" as="sourcePoint" />
            <mxPoint x="166" y="440" as="targetPoint" />
          </mxGeometry>
        </mxCell>
        <mxCell id="9_czOtpSCHXQDGf4dhXp-32" value="WatchVideo" style="html=1;verticalAlign=bottom;endArrow=block;curved=0;rounded=0;" edge="1" parent="1" source="9_czOtpSCHXQDGf4dhXp-4">
          <mxGeometry width="80" relative="1" as="geometry">
            <mxPoint x="170" y="720" as="sourcePoint" />
            <mxPoint x="420" y="720" as="targetPoint" />
          </mxGeometry>
        </mxCell>
        <mxCell id="9_czOtpSCHXQDGf4dhXp-35" value="UpdateViewingProgress" style="html=1;verticalAlign=bottom;endArrow=block;curved=0;rounded=0;" edge="1" parent="1" target="9_czOtpSCHXQDGf4dhXp-33">
          <mxGeometry width="80" relative="1" as="geometry">
            <mxPoint x="430" y="741" as="sourcePoint" />
            <mxPoint x="689.5" y="741" as="targetPoint" />
          </mxGeometry>
        </mxCell>
        <mxCell id="D0GJX6AQU--GE4cpR9dS-1" value="&lt;b style=&quot;forced-color-adjust: none; color: rgb(0, 0, 0); font-family: Helvetica; font-style: normal; font-variant-ligatures: normal; font-variant-caps: normal; letter-spacing: normal; orphans: 2; text-indent: 0px; text-transform: none; widows: 2; word-spacing: 0px; -webkit-text-stroke-width: 0px; white-space: nowrap; text-decoration-thickness: initial; text-decoration-style: initial; text-decoration-color: initial; font-size: 24px; text-align: center; background-color: rgb(236, 236, 236);&quot;&gt;&lt;u style=&quot;forced-color-adjust: none;&quot;&gt;Watch Online Course&lt;/u&gt;&lt;/b&gt;" style="text;whiteSpace=wrap;html=1;" vertex="1" parent="1">
          <mxGeometry x="310" y="20" width="330" height="50" as="geometry" />
        </mxCell>
      </root>
    </mxGraphModel>
  </diagram>
</mxfile>
